<svg preserveAspectRatio="none" width="100%" height="100%" overflow="visible" style="display: block;" viewBox="0 0 8.25042 4.5005" fill="none" xmlns="http://www.w3.org/2000/svg">
<path id="Vector" d="M8.14052 0.640521L4.39052 4.39052C4.35569 4.42539 4.31434 4.45305 4.26881 4.47192C4.22329 4.49079 4.17449 4.5005 4.12521 4.5005C4.07593 4.5005 4.02713 4.49079 3.98161 4.47192C3.93608 4.45305 3.89472 4.42539 3.8599 4.39052L0.109896 0.640521C0.0395308 0.570156 0 0.47472 0 0.375208C0 0.275697 0.0395308 0.180261 0.109896 0.109896C0.180261 0.0395306 0.275697 0 0.375208 0C0.47472 0 0.570156 0.0395306 0.640521 0.109896L4.12521 3.59505L7.6099 0.109896C7.64474 0.0750545 7.6861 0.0474169 7.73162 0.0285609C7.77715 0.00970488 7.82594 0 7.87521 0C7.92448 0 7.97327 0.00970488 8.0188 0.0285609C8.06432 0.0474169 8.10568 0.0750545 8.14052 0.109896C8.17536 0.144737 8.203 0.1861 8.22186 0.231622C8.24071 0.277145 8.25042 0.325935 8.25042 0.375208C8.25042 0.424482 8.24071 0.473272 8.22186 0.518795C8.203 0.564317 8.17536 0.60568 8.14052 0.640521Z" fill="var(--fill-0, white)"/>
</svg>
