<svg preserveAspectRatio="none" width="100%" height="100%" overflow="visible" style="display: block;" viewBox="0 0 20.8 14.7369" fill="none" xmlns="http://www.w3.org/2000/svg">
<path id="Vector" fill-rule="evenodd" clip-rule="evenodd" d="M0 3.67544V3.87864C0.025192 3.90552 0.025192 3.9332 0 3.95928V4.16248C0.0278 4.2396 0.0244721 4.31832 0.0211281 4.39744C0.0191201 4.44504 0.0171039 4.49272 0.0218319 4.54032V4.89048V5.16672C0.0178479 5.20288 0.0199041 5.23944 0.0219601 5.27584C0.0255361 5.3392 0.029096 5.40232 0.000839996 5.46312V9.27776C0.028544 9.32728 0.0251442 9.37952 0.0217522 9.43176C0.0198002 9.46176 0.0178399 9.49176 0.0218319 9.52128C0.0178399 9.55072 0.0198002 9.58072 0.0217522 9.61072C0.0251442 9.66296 0.028544 9.7152 0.000839996 9.76472V9.9268C0.022504 9.94584 0.0220961 9.97056 0.0216881 9.9952C0.0215761 10.0022 0.0214639 10.009 0.0218319 10.0158C0.0206079 10.0269 0.021096 10.0383 0.021592 10.0498C0.0228 10.0778 0.024016 10.106 0.000839996 10.1292V10.2912C0.024968 10.3222 0.023568 10.3567 0.022168 10.3913C0.021672 10.4036 0.0211679 10.4159 0.0218319 10.4281C0.0233199 10.4524 0.0247922 10.4767 0.0262642 10.501C0.0471842 10.8469 0.0680481 11.1919 0.140224 11.5339C0.444184 12.9765 1.2679 13.9463 2.692 14.3813C3.4804 14.6222 4.2924 14.728 5.11192 14.7306C8.17096 14.7401 11.23 14.7369 14.289 14.7337C14.4686 14.7334 14.6482 14.7333 14.8278 14.733C14.9054 14.733 14.9832 14.7333 15.0609 14.7334C15.4962 14.7346 15.9317 14.7356 16.3677 14.7029C17.0243 14.6533 17.6717 14.5718 18.2998 14.3703C19.2696 14.0588 19.9665 13.445 20.357 12.497C20.7062 11.6498 20.7894 10.7555 20.7936 9.85376C20.802 8.03504 20.8028 6.21632 20.7919 4.3976C20.7886 3.82496 20.7676 3.25224 20.6492 2.68464C20.4098 1.53768 19.7642 0.771042 18.6423 0.403282C17.7506 0.111042 16.8286 0.0144822 15.9034 0.0103222C12.2667 -0.00567784 8.62848 0.000241743 4.99184 0.00608174C4.19328 0.00696174 3.39816 0.0808016 2.61896 0.263842C2.03452 0.400722 1.4795 0.614882 1.01852 1.01456C0.429912 1.52504 0.173808 2.20432 0.0621361 2.95336C0.0464001 3.0576 0.0431039 3.16304 0.0398079 3.2684C0.0355359 3.40488 0.031272 3.54136 0 3.67544ZM7.9968 6.55032C7.99704 6.78912 7.9972 7.02792 7.9972 7.26664C7.9972 7.62472 7.99696 7.98288 7.9968 8.3412C7.99656 8.69976 7.99632 9.0584 7.99632 9.41704C7.9972 10.0989 8.48424 10.4003 9.08376 10.0879C9.58048 9.82896 10.0772 9.5696 10.5738 9.31016C11.4574 8.8488 12.3408 8.38736 13.225 7.92832C13.4954 7.78808 13.691 7.59752 13.6918 7.27672C13.6926 6.9568 13.5062 6.762 13.2326 6.62096C12.4693 6.22688 11.707 5.83048 10.9446 5.43408C10.3198 5.10912 9.69496 4.78424 9.06944 4.46048C8.49592 4.16328 7.99888 4.46976 7.9972 5.11712C7.99608 5.59464 7.99648 6.07256 7.9968 6.55032Z" fill="var(--fill-0, #0E122A)"/>
</svg>
