<svg preserveAspectRatio="none" width="100%" height="100%" overflow="visible" style="display: block;" viewBox="0 0 21.12 15.6445" fill="none" xmlns="http://www.w3.org/2000/svg">
<path id="Vector" d="M18.5042 1.98167C17.051 0.730067 15.3071 0.104333 13.4664 0L13.1758 0.312933C14.8227 0.730066 16.2759 1.56447 17.6323 2.71173C15.9853 1.77307 14.1446 1.14727 12.2069 0.938667C11.6257 0.8344 11.1413 0.8344 10.56 0.8344C9.97875 0.8344 9.49428 0.8344 8.91301 0.938667C6.97541 1.14727 5.13468 1.77307 3.48768 2.71173C4.84401 1.56447 6.29728 0.730066 7.94421 0.312933L7.65355 0C5.81281 0.104333 4.06901 0.730067 2.61575 1.98167C0.968807 5.31913 0.09688 9.0738 0 12.9327C1.45321 14.6015 3.48768 15.6445 5.61908 15.6445C5.61908 15.6445 6.29728 14.8101 6.78168 14.08C5.52221 13.7671 4.35961 13.0371 3.58461 11.8898C4.26275 12.307 4.94095 12.7241 5.61908 13.0371C6.49101 13.4543 7.36295 13.6628 8.23488 13.8714C9.00988 13.9757 9.78495 14.08 10.56 14.08C11.3351 14.08 12.1101 13.9757 12.8851 13.8714C13.7571 13.6628 14.629 13.4543 15.5009 13.0371C16.1791 12.7241 16.8573 12.307 17.5354 11.8898C16.7603 13.0371 15.5978 13.7671 14.3383 14.08C14.8227 14.8101 15.5009 15.6445 15.5009 15.6445C17.6323 15.6445 19.6668 14.6015 21.12 12.9327C21.0231 9.0738 20.1512 5.31913 18.5042 1.98167ZM7.36295 11.0554C6.39415 11.0554 5.52221 10.1167 5.52221 8.96947C5.52221 7.82227 6.39415 6.8836 7.36295 6.8836C8.33175 6.8836 9.20368 7.82227 9.20368 8.96947C9.20368 10.1167 8.33175 11.0554 7.36295 11.0554ZM13.7571 11.0554C12.7883 11.0554 11.9163 10.1167 11.9163 8.96947C11.9163 7.82227 12.7883 6.8836 13.7571 6.8836C14.7259 6.8836 15.5978 7.82227 15.5978 8.96947C15.5978 10.1167 14.7259 11.0554 13.7571 11.0554Z" fill="var(--fill-0, #0E122A)"/>
</svg>
