<svg preserveAspectRatio="none" width="100%" height="100%" overflow="visible" style="display: block;" viewBox="0 0 8.62167 7.6923" fill="none" xmlns="http://www.w3.org/2000/svg">
<path id="Vector" fill-rule="evenodd" clip-rule="evenodd" d="M8.28561 3.56494C8.06366 3.91424 7.744 4.18915 7.3726 4.36949C6.97602 4.56178 6.53339 4.64376 6.09456 4.64376H1.40098V7.6923H0V0H6.09456C6.56555 0 6.99179 0.0908032 7.3726 0.273647C7.75786 0.453341 8.0624 0.718161 8.28623 1.06746C8.51071 1.41802 8.62167 1.83417 8.62167 2.31337C8.62167 2.79255 8.51071 3.20996 8.28623 3.56429L8.28561 3.56494ZM6.90602 3.2087C6.65321 3.41549 6.31209 3.51954 5.88335 3.51954H1.34552V1.12357H5.88335C6.31209 1.12357 6.65256 1.22888 6.90602 1.43947C7.15886 1.64691 7.2856 1.94136 7.2856 2.32408C7.2856 2.70681 7.15886 2.99811 6.90602 3.2087Z" fill="var(--fill-0, #0E122A)"/>
</svg>
