<svg preserveAspectRatio="none" width="100%" height="100%" overflow="visible" style="display: block;" viewBox="0 0 79.8412 13.4702" fill="none" xmlns="http://www.w3.org/2000/svg">
<path id="Vector" d="M2.6196 10.4773H4.64291V2.54968H7.28984V0.637313H0V2.55023H2.6196V10.4773ZM7.29257 10.4773H9.19127V7.16526C9.19127 6.01478 9.78701 5.32176 10.6888 5.32176C11.0069 5.32176 11.2567 5.37696 11.5474 5.47425V3.54767C11.3405 3.48782 11.1256 3.45981 10.9102 3.4646C10.1341 3.4646 9.42738 3.97726 9.19127 4.65607V3.54822H7.29257V10.4773ZM15.1918 10.6298C16.1483 10.6298 16.8686 10.1445 17.1878 9.70069V10.4768H19.0865V3.54822H17.1878V4.32432C16.8686 3.88107 16.1483 3.39573 15.1918 3.39573C13.3489 3.39573 11.9349 5.05887 11.9349 7.01278C11.9349 8.96723 13.3489 10.6304 15.1924 10.6304L15.1918 10.6298ZM15.5941 8.89727C14.5403 8.89727 13.8473 8.10751 13.8473 7.01278C13.8473 5.9175 14.5403 5.12719 15.5941 5.12719C16.6473 5.12719 17.3403 5.9175 17.3403 7.01278C17.3403 8.10751 16.6473 8.89727 15.5941 8.89727ZM23.607 10.6298C24.5634 10.6298 25.2838 10.1445 25.6024 9.70069V10.4768H27.5011V0.0836617H25.6024V4.32486C25.2838 3.88107 24.5634 3.39573 23.607 3.39573C21.7635 3.39573 20.3496 5.05887 20.3496 7.01278C20.3496 8.96723 21.7635 10.6304 23.607 10.6304V10.6298ZM24.0087 8.89727C22.9555 8.89727 22.2625 8.10751 22.2625 7.01278C22.2625 5.9175 22.9555 5.12719 24.0087 5.12719C25.0619 5.12719 25.7549 5.9175 25.7549 7.01278C25.7549 8.10751 25.0619 8.89727 24.0087 8.89727ZM30.1508 2.4912C30.3102 2.49257 30.4683 2.46242 30.616 2.40249C30.7636 2.34256 30.898 2.25403 31.0114 2.14198C31.1248 2.02994 31.2149 1.89659 31.2765 1.74961C31.3382 1.60263 31.3702 1.44491 31.3707 1.28552C31.3702 1.12613 31.3382 0.968406 31.2765 0.821423C31.2149 0.67444 31.1248 0.541094 31.0114 0.429052C30.898 0.31701 30.7636 0.228475 30.616 0.168546C30.4683 0.108612 30.3102 0.0784668 30.1508 0.0798359C29.8318 0.0824046 29.5266 0.210258 29.3011 0.435813C29.0755 0.661367 28.9477 0.966548 28.9451 1.28552C28.9477 1.60449 29.0755 1.90967 29.3011 2.13522C29.5266 2.36078 29.8318 2.48863 30.1508 2.4912ZM29.2085 10.4773H31.1072V3.62692H29.2085V10.4773ZM32.7917 10.4773H34.6904V7.09585C34.6904 5.76501 35.3419 5.12774 36.2289 5.12774C37.0187 5.12774 37.4488 5.73769 37.4488 6.73513V10.4773H39.3475V6.4165C39.3475 4.61508 38.3495 3.39519 36.6727 3.39519C35.7715 3.39519 35.0648 3.78324 34.6904 4.33743V3.54767H32.7917V10.4773ZM44.179 8.63329C43.2225 8.63329 42.4191 7.91239 42.4191 6.8592C42.4191 5.79234 43.2225 5.08511 44.179 5.08511C45.1355 5.08511 45.9389 5.79234 45.9389 6.8592C45.9389 7.91239 45.1355 8.63329 44.179 8.63329ZM43.9571 13.4702C46.0777 13.4702 47.6856 12.3892 47.6856 9.89417V3.50559H45.7869V4.28169C45.4126 3.7417 44.6638 3.35365 43.7773 3.35365C41.9617 3.35365 40.5062 4.90584 40.5062 6.85975C40.5062 8.79999 41.9617 10.3522 43.7773 10.3522C44.6643 10.3522 45.4126 9.95047 45.7869 9.4378V9.90893C45.7869 11.0179 45.0524 11.8076 43.9298 11.8076C43.1537 11.8076 42.3776 11.5442 41.7676 10.9485L40.7281 12.3618C41.5179 13.1243 42.7514 13.4702 43.9571 13.4702ZM51.7 10.4773H53.4872L57.5623 0.637313H55.3449L52.6007 7.46969L49.815 0.637313H47.6392L51.7 10.4773ZM59.3047 2.4114C59.4643 2.4127 59.6222 2.3825 59.7698 2.32253C59.9174 2.26257 60.0518 2.17403 60.1649 2.06199C60.2781 1.94995 60.3683 1.81664 60.43 1.66969C60.4918 1.52274 60.5235 1.36507 60.524 1.20572C60.5235 1.04638 60.4918 0.888703 60.43 0.741758C60.3683 0.594808 60.2781 0.461489 60.1649 0.349453C60.0518 0.237416 59.9174 0.14887 59.7698 0.0889086C59.6222 0.0289442 59.4643 -0.00125689 59.3047 4.00674e-05C58.6532 4.00674e-05 58.0984 0.540028 58.0984 1.20572C58.0984 1.87087 58.6532 2.4114 59.3047 2.4114ZM58.3619 10.4773H60.2606V3.54767H58.3619V10.4773ZM65.1746 10.6298C66.6295 10.6298 67.7384 10.0199 68.3899 9.07763L66.976 8.02444C66.6574 8.50922 66.0616 8.89727 65.1882 8.89727C64.2739 8.89727 63.4562 8.38461 63.3453 7.45603H68.5282C68.5697 7.16472 68.5561 6.97069 68.5561 6.80454C68.5561 4.54567 66.9623 3.39519 65.1467 3.39519C63.0403 3.39519 61.5018 4.96104 61.5018 7.01223C61.5018 9.20224 63.1097 10.6298 65.1746 10.6298ZM63.4142 6.16727C63.5945 5.32176 64.3843 4.96104 65.0915 4.96104C65.7982 4.96104 66.4912 5.33543 66.6574 6.16727H63.4142ZM75.6694 10.4773H77.5544L79.8412 3.54767H77.8036L76.5012 7.98235L75.0873 3.54767H73.6324L72.2327 7.98235L70.9161 3.54767H68.8922L71.1932 10.4773H73.0776L74.367 6.54111L75.6694 10.4773Z" fill="var(--fill-0, #0E122A)"/>
</svg>
