<svg preserveAspectRatio="none" width="100%" height="100%" overflow="visible" style="display: block;" viewBox="0 0 11.1671 11.198" fill="none" xmlns="http://www.w3.org/2000/svg">
<path id="Vector" d="M5.58386 0C4.56684 0 3.61349 0.273013 2.79193 0.749683C2.26607 1.05422 1.79508 1.44199 1.39596 1.89596C0.527111 2.88271 0 4.1797 0 5.59899V9.79823L1.39596 11.198V5.59899C1.39596 4.3556 1.93505 3.23833 2.79193 2.4691C3.19481 2.10845 3.66772 1.82345 4.18788 1.63997C4.62422 1.48423 5.09457 1.39974 5.58386 1.39974C7.89659 1.39974 9.7711 3.27994 9.7711 5.59899C9.7711 7.91801 7.89594 9.79823 5.58386 9.79823V11.198C8.66772 11.198 11.1671 8.69102 11.1671 5.59899C11.1671 2.50693 8.66772 0 5.58386 0Z" fill="var(--fill-0, #0E122A)"/>
</svg>
