<svg preserveAspectRatio="none" width="100%" height="100%" overflow="visible" style="display: block;" viewBox="0 0 764.077 281.304" fill="none" xmlns="http://www.w3.org/2000/svg">
<g id="ripple" opacity="0.5">
<path fill-rule="evenodd" clip-rule="evenodd" d="M1.60406 183.304C1.96423 183.114 2.37548 183.044 2.77746 183.107C30.8056 187.496 56.7377 199.269 84.2724 205.372C140.303 217.79 197.229 226.28 254.59 231.031C313.448 235.914 372.884 238.545 431.85 242.603C496.232 247.033 554.122 239.445 617.239 229.469C657.941 223.035 698.415 215.637 738.67 207.194C743.181 206.246 748.046 205.938 752.755 205.253C758.113 204.474 764.057 208.514 764.062 213.975L764.077 231.671C764.08 234.934 761.927 237.723 758.764 238.399C757.272 238.717 755.794 239.071 754.396 239.585C742.881 243.822 731.029 248.809 719.194 252.669L719.196 252.672C674.902 267.105 628.4 264.503 582.256 267.217C468.027 273.933 363.324 290.163 247.916 275.083C237.673 273.743 227.611 268.795 219.244 267.816C211.33 266.887 202.149 268.316 194.102 267.738C186.256 267.168 164.682 261.768 158.431 257.467C157.346 256.714 157.267 254.02 155.929 252.549C153.083 249.436 136.694 247.454 131.521 246.045C105.566 238.993 80.2057 229.491 53.9233 223.426C37.9098 219.73 18.0299 218.489 3.07528 213.993C1.79681 213.609 0.720344 213.183 0.45001 211.664C-0.878997 204.148 1.22455 193.458 0.561692 185.256C0.496729 184.453 0.896128 183.677 1.60406 183.304ZM255.542 252.899C253.218 252.894 251.734 255.181 253.868 256.112C256.408 257.221 261.27 258.287 263.815 259.384C265.523 260.119 267.488 260.545 269.305 260.842C299.64 265.824 330.301 268.936 361.036 270.146C382.471 270.988 404.301 270.859 424.847 264.907C426.411 264.451 428.068 263.896 429.051 262.631C430.168 261.187 429.846 259.986 428.626 258.989C424.208 255.384 408.012 254.48 405.481 254.347C388.789 253.492 372.063 253.39 355.347 253.294C322.076 253.111 288.812 252.978 255.542 252.899ZM646.619 238.166C642.666 237.362 638.587 237.432 634.551 237.551C610.116 238.234 585.723 240.263 561.525 243.615C548.947 245.361 536.386 247.473 524.221 251.04C522.036 251.683 513.907 255.94 519.013 258.239C525.734 261.258 533.328 261.779 540.728 261.793C553.299 261.811 565.827 260.491 578.287 258.892C595.911 256.629 613.458 253.8 630.896 250.409C633.947 249.815 637.142 249.133 639.47 247.134C641.209 245.633 642.494 243.389 644.756 242.86C646.597 242.429 649.271 242.879 649.758 241.108C650.059 240.032 649.17 239.175 648.062 238.651C648.058 238.649 648.056 238.646 648.053 238.643C648.05 238.641 648.047 238.639 648.044 238.637C647.583 238.418 647.088 238.264 646.619 238.166Z" fill="var(--fill-0, #99D1FF)" fill-opacity="0.5"/>
<path fill-rule="evenodd" clip-rule="evenodd" d="M0.372577 130.627C0.368731 125.457 5.52912 121.883 10.4031 123.493C29.7603 129.885 50.0439 133.663 69.4515 139.742C73.3543 140.962 81.0087 143.327 84.4154 144.808C87.2754 146.052 92.4767 152.132 95.8754 154.086C111.296 162.943 146.712 161.257 165.374 164.163C188.989 167.841 213.037 175.228 236.903 177.166C302.337 182.496 366.155 185.79 431.826 183.893C505.184 181.781 583.176 180.416 655.01 166.691C685.857 160.796 716.282 153.21 746.724 145.714C749.424 145.047 752.111 144.304 754.791 143.539C759.426 142.215 764.013 145.704 764.017 150.565L764.031 167.4C764.034 170.949 761.525 173.996 758.052 174.554C745.196 176.62 732.141 177.896 719.365 180.274C673.589 188.794 628.353 201.439 582.079 207.526C582.074 207.526 582.071 207.53 582.071 207.535C582.071 207.539 582.067 207.543 582.062 207.544C527.841 214.676 466.943 219.673 412.511 214.851C387.031 212.593 362.677 209.999 336.928 209.047C285.103 207.143 231.978 210.856 181.346 198.467C146.476 189.937 110.741 183.023 76.0139 174.2C52.4403 168.204 27.9987 155.246 4.18465 148.724C3.59187 148.561 3.03236 148.298 2.53176 147.938C1.18589 146.972 0.385966 145.408 0.38449 143.743L0.372577 130.627ZM568.765 192.971C567.92 189.876 554.259 190.877 549.953 191.298C547.7 191.516 522.884 195.293 523.428 197.327C523.833 198.846 525.759 199.362 527.365 199.568C538.087 200.94 556.278 203.398 565.766 196.783C568.186 195.095 569.009 193.861 568.765 192.971Z" fill="var(--fill-0, #99D1FF)" fill-opacity="0.5"/>
<path d="M160.987 99.867C192.377 100.441 222.429 110.191 252.897 115.116C275.621 118.793 299.973 117.784 322.277 122.04C335.506 124.566 341.977 130.738 356.164 132.407C391.577 136.568 428.4 126.594 464.271 135.198C465.828 135.569 468.742 136.052 470.106 137.34C470.825 138.018 470.692 139.169 469.92 139.781C465.541 143.249 447.132 147.011 443.285 147.757C418.668 152.53 385.403 155.181 360.594 151.788C350.225 150.367 337.07 145.081 326.829 146.339C315.84 147.685 309.231 149.133 297.324 148.731C278 148.078 234.287 145.037 217.942 136.825C214.931 135.311 213.239 132.926 209.614 131.853C189.629 125.916 163.906 126.156 144.567 117.451C142.565 116.551 136.887 113.591 136.053 111.843C131 101.209 154.625 99.7638 160.98 99.8745L160.984 99.8715L160.987 99.867Z" fill="var(--fill-0, #99D1FF)" fill-opacity="0.5"/>
<path d="M652.292 117.797C655.462 117.424 673.183 115.211 672.788 120.193C672.605 122.502 662.124 131.303 660.488 134.324L660.491 134.327C653.076 137.755 633.177 140.604 626.757 135.216C624.798 133.569 623.85 130.034 625.441 127.746C630.834 119.997 643.562 118.818 652.292 117.797Z" fill="var(--fill-0, #99D1FF)" fill-opacity="0.5"/>
<path d="M752.98 80.7205C757.937 78.1653 763.959 81.7539 763.964 87.3731L763.971 96.184C763.974 99.8422 761.308 102.932 757.747 103.616C745.496 105.968 732.827 109.761 720.703 110.665C716.837 110.956 708.335 111.202 704.732 110.67L704.729 110.676C703.515 110.498 703.372 111.154 703.463 109.426C703.654 105.743 709.134 103.282 712.169 101.561C725.371 94.0774 739.405 87.7184 752.98 80.7205Z" fill="var(--fill-0, #99D1FF)" fill-opacity="0.5"/>
<path d="M130.899 57.4885C136.33 50.2237 148.424 55.9396 156.257 57.0979C193.21 62.5343 232.18 66.7564 268.497 76.2835C287.303 81.215 301.443 86.3713 321.675 87.5067C394.214 91.6006 466.925 80.6443 539.279 85.2116C540.421 85.2827 541.524 85.534 542.633 85.7463C544.311 86.0679 545.559 87.3508 544.293 88.5056C537.403 94.7878 481.624 102.003 469.533 103.128C438.028 106.058 404.45 104.772 372.924 103.063C348.873 101.761 326.989 96.1009 303.19 94.0316C249.655 89.3654 194.633 86.5112 144.256 66.2994C142.527 65.6023 134.765 62.4015 131.408 60.467C130.262 59.8068 130.106 58.5495 130.899 57.4885Z" fill="var(--fill-0, #99D1FF)" fill-opacity="0.5"/>
<path d="M60.3949 67.7249C76.5133 66.0314 106.465 74.7204 120.414 82.9225C121.928 83.814 123.007 85.8799 124.235 86.5995C125.598 87.4005 127.304 86.0885 128.945 88.5476C132.245 93.4988 122.518 95.3436 119.129 95.4225C102.253 95.8168 74.2611 86.9835 58.8417 79.8418C55.7209 78.3939 46.7964 75.3319 50.963 71.1871C52.1055 70.0531 58.4769 67.9198 60.3949 67.7249Z" fill="var(--fill-0, #99D1FF)" fill-opacity="0.5"/>
<path d="M0.30259 32.3654C0.297775 26.5119 6.74542 23.0108 11.5944 26.234L32.6308 40.2195C33.1954 40.595 33.7241 41.0588 34.1437 41.5939C42.725 52.5374 20.7511 46.0409 15.2546 44.6085C11.6856 43.6744 7.75296 42.7151 4.20252 41.334C1.73169 40.3729 0.306275 37.8694 0.304079 35.1997L0.30259 32.3654Z" fill="var(--fill-0, #99D1FF)" fill-opacity="0.5"/>
<path d="M46.7578 0.232227C52.2402 -1.12915 56.5474 3.85367 61.0426 5.86638C70.2788 9.99774 79.9254 12.1454 89.0614 17.028C91.9891 18.5903 104.331 26.122 105.897 28.026C107.496 29.9715 107.811 35.9887 105.315 37.1869C102.65 38.4664 95.0636 35.6523 92.1363 34.4577C84.2882 31.2501 71.3154 23.4153 63.5756 18.9176C60.035 16.8629 44.7969 8.63145 44.4169 2.81123C44.3321 1.51021 45.5033 0.543843 46.7578 0.232227Z" fill="var(--fill-0, #99D1FF)" fill-opacity="0.5"/>
</g>
</svg>
