<svg preserveAspectRatio="none" width="100%" height="100%" overflow="visible" style="display: block;" viewBox="0 0 1790 779" fill="none" xmlns="http://www.w3.org/2000/svg">
<g id="Union">
<path d="M1787.15 754.257L1788.58 777.672L1757.92 779V778.986C1758.64 768.741 1765.69 759.91 1752.65 750.768L1787.15 754.257Z" fill="var(--fill-0, #99D1FF)" fill-opacity="0.5"/>
<path d="M1787.07 591.244C1708.6 591.174 1705.84 638.046 1789.72 633.609V729.585C1757.15 732.284 1729.78 723.861 1699.74 720.357C1637.52 713.108 1620.42 718.11 1562.42 723.522C1498.82 729.457 1434.12 732.355 1369.78 735.223C1201.33 742.712 1034.94 743.829 866.302 739.533C748.82 736.537 650.59 733.443 539.313 713.306C519.582 709.731 496.298 710.734 478.212 702.015L488.871 693.58L480.757 690.711L482.294 677.343L492.877 684.409L495.608 680.085L716.943 679.378C750.569 691.7 719.196 698.158 717.313 705.139C714.158 716.811 759.348 719.283 773.589 719.778C794.779 720.498 879.243 721.36 886.005 707.427C890.513 698.186 851.768 699.119 842.513 698.539C838.774 698.313 834.849 697.72 838.588 695.727C851.291 694.837 883.538 685.412 894.306 689.312C895.95 689.905 900.273 696.123 903.72 698.413C914.222 705.393 950.819 719.566 967.05 719.834C986.144 720.159 1004.15 712.826 1021.23 710.452C1030.59 709.152 1044.38 709.872 1053.03 707.626C1062.79 705.096 1067.16 695.162 1075.68 694.286L1079.64 694.466C1120.59 696.231 1161.96 695.1 1202.84 697.126C1232.14 698.581 1261.31 702.327 1290.62 703.994C1358.48 707.852 1433.74 705.675 1501.56 700.984C1519.19 699.768 1558.04 691.898 1536.67 680.169C1509.64 665.346 1440 680.763 1420.19 666.01C1409.59 658.126 1424.54 656.062 1437.27 654.028C1485.64 646.27 1537.81 645.464 1584.83 632.421C1631.85 619.379 1647.12 595.978 1700.48 582.525C1730.42 574.979 1753.87 573.284 1787.07 572.889V591.244Z" fill="var(--fill-0, #99D1FF)" fill-opacity="0.5"/>
<path d="M1.38693 486.759L72.6973 510.173C178.829 551.421 307.717 585.222 438.035 599.254C474.34 603.168 511.362 604.907 547.694 608.581C607.788 614.657 666.636 624.478 726.809 630.314C859.328 643.187 1068.33 642.791 1202.52 633.394C1277.28 628.151 1334.77 614.882 1404.97 605.74C1465.49 597.855 1526.09 590.55 1584.48 578.567C1590.34 577.366 1606.71 574.44 1609.76 572.264C1616.84 567.205 1606.26 565.255 1606.92 560.168C1628.4 556.056 1626.54 556.876 1636.97 565.34C1638.45 566.541 1643.62 566.287 1644.23 569.325C1645.35 574.751 1626.41 578.736 1618.91 581.364C1337.27 637.28 1046.9 655.311 747.203 643.427C706.893 641.83 593.123 633.69 559.655 624.774C551.884 622.711 546.288 614.36 529.262 612.636C519.769 611.675 514.942 614.501 507.092 614.459C491.711 614.388 450.207 609.484 433.128 607.478C324.848 594.76 224.337 570.413 122.236 548.666L1.35918 508.605V486.731L1.38693 486.759Z" fill="var(--fill-0, #99D1FF)" fill-opacity="0.5"/>
<path fill-rule="evenodd" clip-rule="evenodd" d="M302.28 130.207C312.012 128.217 315.556 133.519 306.79 136.525C304.071 137.458 302.712 139.13 300.956 140.578C296.585 144.182 284.264 141.892 273.636 142.706C255.947 144.048 198.266 151.976 189.276 159.861C180.287 167.746 198.531 178.782 210.889 182.414C229.427 187.868 238.126 174.091 249.875 177.892C250.909 178.231 251.598 180.606 254.568 181.651C266.149 185.748 283.802 182.911 300.104 181.757C308.435 181.168 310.924 180.78 302.595 180.181C297.457 179.8 281.454 172.131 277.32 167.616C275.79 165.943 278.724 164.701 282.023 164.092C303.309 160.165 329.235 150.076 350.102 156.477C354.212 157.738 356.471 160.342 355.072 162.757C352.158 167.787 343.243 169.193 334.474 171.519C330.614 172.544 328.668 174.796 329.101 177.082L329.381 178.559C329.581 179.614 328.822 180.656 327.341 181.364C324.504 182.72 325.07 184.929 328.849 184.668C330.753 184.536 332.779 184.254 334.794 183.968C342.04 182.942 341.467 185.778 334.295 186.941L236.758 202.756C234.718 203.087 232.822 203.626 231.09 204.289C222.292 207.659 211.681 210.369 203.942 214.236C192.857 219.789 167.69 241.988 155.782 243.741C143.875 245.493 140.161 235.207 122.048 235.419C88.6069 235.8 4.88358 261.773 6.50128 282.743C7.44536 295.129 58.2165 306.575 72.9471 316.165C74.0852 316.906 74.9824 317.805 74.7297 318.753C73.869 321.98 64.755 324.507 61.1594 327.325C50.8169 335.394 43.6564 345.85 51.267 355.021C63.2274 369.434 86.3801 383.425 117.249 386.194C131.676 387.48 142.549 384.625 156.313 385.12C200.812 386.745 218.608 414.795 246.878 428.657C290.423 450.008 391.303 473.96 447.764 485.377C508.706 497.699 568.668 502.773 625.632 519.065C639.74 523.107 660.559 524.351 672.652 527.897C680.926 530.314 684.745 535.5 696.281 537.902C724.604 543.809 779.129 542.254 810.767 543.258C888.603 545.716 975.535 542.269 1049.26 546.056C1058.65 546.544 1100.03 552.754 1113.21 552.264C1115.55 552.177 1116.42 550.956 1115.85 549.743C1114.92 547.775 1117.36 545.805 1121.13 545.507C1150.65 543.173 1180.8 541.991 1210.58 540.276C1253.7 537.789 1311.7 532.094 1353.97 531.939C1367.02 531.896 1372.53 536.446 1356.36 537.464C1327.34 539.287 1243.36 538.298 1222.91 545.434C1204.67 551.807 1207.32 555.141 1180.43 559.493C1101.29 572.321 1016.52 573.465 935.284 579.727C933.077 579.897 931.436 580.899 931.406 582.087C931.376 583.277 932.971 584.3 935.164 584.528C950.38 586.107 965.283 588.539 980.705 589.634C1161.89 602.606 1334.27 581.665 1506.28 555.226C1525.66 552.245 1558.2 547.369 1575.31 542.593C1588.88 538.82 1603.1 531.02 1616.73 526.554C1635.56 520.393 1656.83 516.805 1675.52 511.294C1706.37 502.193 1738.25 492.475 1765.35 480.186C1775.16 475.74 1792.37 478.029 1788.36 484.548C1784.52 490.774 1772.73 494.418 1757.71 500.017C1733.79 508.934 1716.87 513.385 1693.16 523.517C1644.65 544.233 1594.35 555.297 1534.84 564.792C1501.66 570.077 1464.96 572.254 1433.4 578.5C1323.84 600.176 1238.8 606.902 1120.94 603.878C964.37 599.865 805.356 602.607 649.261 595.457C512.552 589.197 432.886 562.291 311.346 535.514C253.48 522.768 187.447 512.749 133.877 495.961C98.6587 484.925 75.0287 468.449 46.5199 453.569C33.8785 446.962 17.1833 441.517 5.97238 433.929C3.84405 432.488 2.89268 430.675 2.88385 428.841C2.77972 406.972 -2.35651 381.738 1.32979 360.362C4.24717 343.335 26.126 334.531 13.2905 314.579C10.6915 310.524 2.71059 305.762 1.56976 302.469C-0.0479474 297.848 0.00520365 256.982 1.99419 253.406C4.88586 248.249 30.0244 240.364 39.4124 238.046C66.7276 231.306 110.034 229.144 132.231 222.573C138.49 220.722 144.14 216.285 143.715 212.399C142.495 200.515 96.35 192.178 77.6272 193.365C55.7491 194.75 54.4228 206.606 41.004 212.102C36.0892 214.115 29.4408 215.734 22.6018 217.305C13.3036 219.44 1.40978 215.605 1.40978 210.21V193.836C52.1608 177.602 106.094 160.085 162.279 149.701C197.1 143.272 229.109 144.204 261.595 139.103C275.094 136.983 288.324 133.061 302.28 130.207ZM749.263 566.282C747.693 566.071 746.055 566.049 744.473 566.235C739.337 566.841 735.694 569.559 738.249 572.009C750.714 583.964 796.399 580.356 818.405 581.523C841.071 582.725 865.68 589.856 888.71 586.185C891.938 585.67 894.885 584.493 895.767 582.76C898.374 577.639 885.123 576.199 875.793 574.953C837.261 569.785 789.145 571.653 749.263 566.282ZM535.97 527.318C510.405 523.093 432.728 504.794 411.247 508.241C402.474 509.654 402.416 515.428 407.553 518.834C407.556 518.836 407.561 518.835 407.561 518.832C407.561 518.83 407.565 518.829 407.567 518.831C419.311 526.573 486.859 536.321 508.07 540.771C558.113 551.27 638.018 573.271 691.164 571.392C705.376 570.884 731.482 564.937 723.167 556.894C721.61 555.388 718.576 554.537 715.46 554.09C655.506 545.499 595.235 537.119 535.97 527.318ZM160.529 415.388C134.752 412.59 98.9763 417.649 113.085 435.016C130.138 455.986 259.765 489.052 301.64 498.293C315.643 501.388 332.298 506.885 343.224 498.788C362.478 484.488 320.681 464.195 301.985 455.759C298.595 454.221 296.977 451.514 294.622 450.535C294.616 450.533 294.608 450.531 294.6 450.531C294.591 450.531 294.583 450.53 294.577 450.527C272.841 441.537 186.303 418.185 160.529 415.388Z" fill="var(--fill-0, #99D1FF)" fill-opacity="0.5"/>
<path d="M1281.59 558.356C1296.61 556.052 1315.84 555.405 1319.07 557.193C1319.07 557.195 1319.07 557.197 1319.07 557.197C1319.06 557.197 1319.06 557.2 1319.06 557.202C1322.94 559.388 1318.23 559.615 1315.39 560.151C1306.71 561.802 1295.91 562.975 1285.28 563.629C1274.41 564.298 1271.08 559.969 1281.59 558.356Z" fill="var(--fill-0, #99D1FF)" fill-opacity="0.5"/>
<path d="M1739.44 525.579C1739.55 523.204 1786.59 509.046 1789.72 510.756V510.77L1789.45 523.318C1776.59 523.94 1760.28 527.133 1747.9 527.331C1743.6 527.402 1742.51 528.023 1739.44 525.579Z" fill="var(--fill-0, #99D1FF)" fill-opacity="0.5"/>
<path d="M821.175 508.015C826.054 507.738 832.34 509.476 839.785 509.414C853.39 509.301 862.698 509.202 876.887 509.414C886.384 509.565 937.968 507.215 946.253 513.123C948.236 514.537 946.004 516.416 943.195 517.352C930.976 521.424 916.307 517.879 903.591 517.765C878.104 517.534 853.854 518.114 828.98 516.472C819.592 515.853 811.769 508.549 821.175 508.015Z" fill="var(--fill-0, #99D1FF)" fill-opacity="0.5"/>
<path fill-rule="evenodd" clip-rule="evenodd" d="M1388.94 318.175C1389.87 313.732 1397.17 310.029 1405.33 311.076C1408.14 311.437 1410.18 312.454 1410.19 313.996C1410.21 319.341 1407.74 331.884 1409.37 335.773C1412.29 342.691 1436.88 351.271 1421.2 356.758C1413.42 359.48 1406.85 363.639 1408.54 368.515L1409.42 371.051C1410.16 373.18 1412.22 375.171 1415.76 376.238C1433.77 381.671 1458.72 379.17 1475.01 382.715C1477.56 383.267 1502.75 392.111 1503.78 392.846C1510.15 397.382 1491.96 415.428 1505.06 420.331C1519.38 425.687 1555.05 416.29 1569.45 412.503C1582.92 408.97 1614.19 396.45 1624.71 395.333C1655.82 392.027 1636.14 408.956 1627.52 416.629C1589.76 450.303 1460.56 478.21 1391.63 489.981C1300.88 505.483 1197.59 513.537 1102.27 516.491C1098.79 516.597 1094.61 516.756 1090.15 516.83C1075.62 517.071 1077.8 512.085 1092.33 511.809C1217.1 509.432 1343.61 496.684 1459.15 472.304C1481.59 467.57 1520.89 459.375 1538.07 450.84C1556.16 441.838 1561.81 432.639 1531.12 430.449C1471.29 426.167 1343.55 473.505 1278.89 483.566C1204.2 495.195 1120.27 498.657 1042.08 500.598C1034.49 500.787 1029.96 497.661 1037.48 497.085C1039.01 496.968 1040.45 496.902 1041.49 496.835C1078.28 494.503 1215.62 492.68 1238.51 484.626C1242.7 483.142 1243.52 480.203 1246.67 479.101C1250.65 477.716 1301.25 471.837 1276.51 464.461C1259.8 459.473 1240.2 462.822 1224.13 462.85C1190.04 462.929 1156.23 463.455 1122.24 464.06C1117.75 464.14 1114.01 462.235 1113.96 459.838C1113.92 457.919 1116.28 456.209 1119.78 455.754C1156.74 450.953 1192.98 454.302 1230.58 447.928C1241.92 446.007 1262.19 442.393 1271.96 436.776C1279.31 432.554 1289.47 426.359 1295.4 421.55C1297.28 420.031 1295.52 418.252 1292.14 417.978C1272.9 416.415 1204.96 424.564 1191.43 425.659C1159.16 428.273 1126.3 431.451 1093.85 432.567C1088.56 432.749 1082.98 431.636 1081.24 428.97C1078.52 424.814 1081.13 420.49 1085.12 416.156C1085.89 415.314 1085.9 414.325 1085.09 413.493C1084.22 412.605 1082.55 412.027 1080.69 411.958L1080.31 411.951H966.996C967.008 411.951 967.015 411.934 967.01 411.928C966.854 411.728 972.265 410.575 973.979 409.707C974.385 409.502 974.93 409.263 975.489 409.254C1006.22 408.769 1026.31 409.769 1057.27 409.182C1135.32 407.712 1254.82 398.244 1317.91 371.593C1326.52 367.952 1341.89 360.568 1344.09 353.791C1345.45 349.585 1335.57 348.441 1328.78 350.709C1308.17 357.596 1289.5 365.755 1266.91 371.255C1126.35 405.466 799.762 413.915 690.289 346.328C684.696 342.88 675.523 336.793 670.453 330.723C665.406 324.682 675.683 324.293 681.872 330.025C684.126 332.113 686.775 334.198 690.262 336.394C802.07 406.68 1062.6 403.501 1213.5 378.108C1265.21 369.404 1297.27 356.488 1342.81 342.555C1359.62 337.411 1374.53 337.793 1383.62 327.59C1386.65 324.202 1388.3 321.229 1388.94 318.175ZM1406.27 424.33C1412.66 416.999 1408.82 409.554 1391.73 410.833C1391.72 410.834 1391.71 410.832 1391.7 410.828L1391.67 410.822C1385.41 411.293 1329.31 423.087 1325.12 424.838C1321.47 426.365 1317.17 429.288 1318.39 431.968C1318.76 432.786 1319.86 433.445 1321.19 433.9C1339.31 440.094 1398.91 432.756 1406.27 424.33ZM1392.35 343.473C1371.08 337.92 1365.38 352.108 1355.17 358.961C1324.91 379.309 1258.4 394.232 1212.15 401.339L1098.23 414.748C1098.22 414.748 1098.22 414.752 1098.22 414.755C1098.22 414.76 1098.22 414.763 1098.23 414.763H1213.47C1223.87 414.763 1277.43 405.762 1289.69 403.134C1311.89 398.358 1385.72 368.245 1394.55 357.364C1397.73 353.45 1401.23 345.791 1392.35 343.473Z" fill="var(--fill-0, #99D1FF)" fill-opacity="0.5"/>
<path d="M1642.3 454.106C1676.51 445.387 1710.43 432.245 1749.99 433.135V433.122C1753.47 444.808 1725.25 444.073 1710.45 450.884C1702.53 454.544 1702.26 457.61 1697.04 460.676C1684.7 467.954 1644.16 478.072 1626.15 482.198C1586.16 491.355 1540.44 499.551 1498.3 505.104L1542.05 483.978C1572.55 469.254 1606.58 463.206 1642.3 454.106Z" fill="var(--fill-0, #99D1FF)" fill-opacity="0.5"/>
<path d="M419.998 210.799C459.566 202.519 501.255 193.729 544.455 194.563H544.481L454.499 212.241C416.338 222.387 376.266 230.088 338.714 240.898C317.948 246.875 261.622 263.365 246.399 270.756C231.469 278.005 213.064 303.27 210.995 314.01C196.648 388.493 358.128 436.34 467.707 460.631C543.739 477.489 624.227 490.872 706.094 496.651C706.809 498.587 705.165 500.042 701.665 500.636C687.556 503.01 657.244 499.265 642.021 497.611C519.818 484.385 303.735 439.223 222.558 387.956C208.423 379.026 170.897 347.713 166.786 337.199C140.744 270.262 328.187 230.003 419.998 210.799Z" fill="var(--fill-0, #99D1FF)" fill-opacity="0.5"/>
<path d="M785.679 487.153C785.622 485.454 788.382 484.116 791.55 484.305L957.102 494.193C957.117 494.193 957.133 494.198 957.138 494.206L959.02 497.216C959.663 498.245 959.773 499.5 958.122 500.134C956.977 500.573 955.536 500.747 953.84 500.891C939.758 502.092 910.958 500.269 895.55 499.463C860.154 497.591 825.099 493.061 790.106 489.888C787.589 489.66 785.724 488.513 785.679 487.153Z" fill="var(--fill-0, #99D1FF)" fill-opacity="0.5"/>
<path fill-rule="evenodd" clip-rule="evenodd" d="M988.457 177.692C998.641 177.593 1009.17 173.933 1018.77 178.37C1022.47 180.086 1022.83 183.388 1024.51 184.284C1024.57 184.313 1024.62 184.339 1024.68 184.363C1024.68 184.364 1024.68 184.363 1024.68 184.361C1024.68 184.36 1024.68 184.358 1024.69 184.359C1024.83 184.416 1024.98 184.472 1025.14 184.526C1028.08 185.551 1032.36 185.971 1037.2 186.055C1038.22 186.073 1039.26 186.076 1040.33 186.066C1050.95 185.971 1063.36 184.641 1070.3 184.588C1072.27 184.574 1074.27 184.563 1076.29 184.555C1080.33 184.538 1084.46 184.533 1088.66 184.54C1216.81 184.732 1417.43 195.757 1511.59 238.991C1519.46 242.606 1526.87 246.672 1534.11 250.828C1540.21 254.327 1540.34 257.733 1536.68 257.818C1536.52 257.822 1536.35 257.819 1536.17 257.809C1534.84 257.737 1533.09 257.28 1531.02 256.318C1530.88 256.254 1530.74 256.187 1530.6 256.119C1530.46 256.05 1530.32 255.979 1530.18 255.905C1528.71 255.158 1527.22 254.421 1525.71 253.693C1524.21 252.964 1522.68 252.245 1521.14 251.536C1520.37 251.182 1519.59 250.83 1518.81 250.48C1517.25 249.781 1515.68 249.09 1514.08 248.409C1509.3 246.367 1504.36 244.407 1499.29 242.527C1497.6 241.9 1495.89 241.282 1494.17 240.673C1481.24 236.105 1467.47 232.026 1453.03 228.378C1451.1 227.892 1449.17 227.413 1447.22 226.942C1445.27 226.471 1443.31 226.008 1441.34 225.552C1439.37 225.095 1437.39 224.646 1435.4 224.204C1432.41 223.542 1429.4 222.896 1426.37 222.266C1424.35 221.846 1422.31 221.433 1420.27 221.027C1418.23 220.621 1416.18 220.221 1414.13 219.829C1412.07 219.437 1410 219.051 1407.92 218.672C1406.89 218.483 1405.85 218.295 1404.8 218.109C1402.72 217.736 1400.63 217.37 1398.53 217.011C1388.03 215.214 1377.34 213.577 1366.52 212.084C1363.27 211.636 1360.01 211.202 1356.75 210.779C1283.74 201.346 1205.5 198.129 1139.27 195.962C1138.19 195.926 1137.06 195.907 1135.88 195.9C1134.7 195.894 1133.47 195.9 1132.22 195.915C1125.53 195.995 1117.94 196.331 1111.22 196.361C1110.38 196.364 1109.55 196.363 1108.74 196.356C1105.51 196.328 1102.54 196.207 1100.08 195.92C1098.3 195.708 1097.77 193.278 1093.26 192.289C1081.14 189.617 1065.04 188.482 1050.01 188.396C1048.64 188.388 1047.29 188.388 1045.94 188.397C1040.56 188.434 1035.38 188.604 1030.65 188.883C1021.98 189.391 1014.31 192.458 1009.12 192.713C1000.87 193.109 987.669 191.438 977.329 192.952C976.996 193.001 976.665 193.053 976.338 193.108L1004.89 187.629C1006.52 187.317 1007.87 186.696 1008.69 185.884C1009.9 184.684 1009.8 183.186 1007.7 182.401C1007.33 182.259 1006.94 182.122 1006.54 181.987C1002.72 180.682 991.721 180.05 977.858 179.996C976.399 179.99 974.908 179.991 973.39 179.998C940.759 180.147 895.808 183.202 888.663 188.063C887.288 188.997 886.547 190.055 886.271 191.185C884.67 197.75 880.218 204.67 867.809 205.003C781.311 207.324 693.697 213.555 610.736 226.315C579.549 231.12 537.86 238.736 510.253 247.596C475.167 258.858 455.595 279.998 419.74 292.532C401.389 298.948 340.393 309.405 332.357 316.555C322.188 325.591 341.749 347.787 362.896 348.367C363.063 348.371 363.231 348.374 363.398 348.376C363.572 348.378 363.746 348.376 363.918 348.372C366.511 348.305 368.838 347.531 370.858 346.636C389.637 338.309 413.688 332.793 429.048 322.886C460.421 302.65 496.542 271.973 551.359 268.072C553.053 267.952 555.285 267.867 557.883 267.833C559.183 267.816 560.575 267.811 562.036 267.821C581.037 267.95 611.916 270.519 607.607 279.589C604.212 286.753 562.47 306.254 553.984 314.661C548.706 319.89 553.399 327.675 540.431 327.167C537.053 327.033 533.24 325.299 530.061 323.06C526.339 320.44 520.741 317.581 515.522 316.875C515.268 316.841 515.014 316.811 514.762 316.787C512.11 316.536 509.585 316.881 507.492 318.142C506.807 318.556 506.188 318.998 505.633 319.465C505.448 319.621 505.27 319.779 505.099 319.94C500.995 323.81 500.941 329.208 503.797 334.179C504.035 334.594 504.293 335.005 504.57 335.413C508.806 341.622 517.588 346.877 528.582 347.166C529.122 347.18 529.668 347.182 530.219 347.172C530.953 347.158 531.697 347.122 532.449 347.063C534.438 346.907 536.222 346.519 537.968 345.999C538.259 345.913 538.548 345.822 538.838 345.729C539.127 345.635 539.417 345.539 539.706 345.44C540.287 345.241 540.869 345.031 541.46 344.814C545.297 343.404 549.488 341.687 555.751 340.679C556.233 340.602 556.728 340.529 557.235 340.46C559.771 340.117 562.632 339.89 565.917 339.837C566.573 339.826 567.247 339.822 567.939 339.826C569.323 339.834 570.777 339.87 572.309 339.941C620.681 342.16 643.754 367.2 678.362 380.864C678.875 381.066 679.389 381.268 679.905 381.468C745.479 406.908 837.863 414.099 916.775 417.59C917.795 417.636 918.818 417.667 919.842 417.688C921.378 417.72 922.917 417.727 924.458 417.719C930.11 417.69 935.787 417.464 941.427 417.527C945.729 417.575 949.543 418.889 951.867 420.819C957.955 425.875 951.392 432.176 940.88 432.286C940.524 432.289 940.162 432.286 939.797 432.275C939.249 432.259 938.692 432.227 938.127 432.176C919.52 430.513 900.941 428.632 882.272 427.496C770.968 420.67 699.419 413.972 601.959 382.036C583.74 376.059 553.4 359.442 529.267 365.024C528.89 365.111 528.523 365.199 528.164 365.287C523.136 366.528 519.862 367.908 517.95 369.375C517.677 369.585 517.432 369.797 517.213 370.01C512.075 375.017 521.66 380.937 531.203 385.866C539.539 390.173 548.64 394.128 558.378 397.767C559.876 398.327 561.39 398.879 562.918 399.424C581.253 405.965 601.692 411.448 623.43 416.104C625.241 416.492 627.061 416.873 628.89 417.25C653.583 422.334 679.834 426.395 706.497 429.758C710.447 430.256 714.406 430.739 718.371 431.208C722.335 431.677 726.305 432.131 730.276 432.572C734.247 433.013 738.22 433.441 742.191 433.857C789.839 438.849 837.178 442.095 877.763 445.428C914.448 448.442 951.352 451.34 988.441 452.508C993.786 452.676 998.117 454.48 999.988 456.874C1000.18 457.113 1000.34 457.358 1000.47 457.609C1000.88 458.359 1001.06 459.153 1000.96 459.962C1000.95 460.097 1000.92 460.232 1000.89 460.368C1000.79 460.774 1000.63 461.184 1000.39 461.592C998.918 464.101 994.947 465.888 990.261 466.355C989.36 466.444 988.432 466.485 987.491 466.473C987.302 466.47 987.114 466.466 986.924 466.459C960.944 465.534 934.726 465.453 908.818 464.193C907.656 464.137 906.494 464.079 905.333 464.02C903.011 463.902 900.692 463.78 898.376 463.652C827.726 459.762 759.518 451.546 689.022 451.56C630.971 451.56 620.044 444.481 570.904 435.324C563.284 433.902 547.828 430.691 535.534 430.498C534.87 430.488 534.214 430.486 533.57 430.494C525.516 430.593 519.176 432.189 517.943 436.765C514.985 447.748 555.218 451.129 572.058 453.756C572.619 453.844 573.154 453.93 573.661 454.016C574.168 454.102 574.647 454.188 575.094 454.274C578.415 454.91 581.397 455.772 584.203 456.675C585.139 456.976 586.056 457.282 586.958 457.585C590.568 458.798 593.962 459.975 597.528 460.675C626.44 466.359 654.728 470.071 684.502 472.775C686.707 472.975 688.921 473.17 691.144 473.359C694.478 473.644 697.832 473.917 701.209 474.179C702.577 474.286 703.958 474.45 705.183 474.769C705.405 474.827 705.623 474.891 705.834 474.96C706.151 475.063 706.453 475.18 706.738 475.311C707.157 475.503 707.517 475.699 707.819 475.897C707.97 475.997 708.107 476.097 708.23 476.197C708.415 476.348 708.571 476.499 708.696 476.651C708.779 476.752 708.848 476.853 708.906 476.955C708.993 477.107 709.051 477.26 709.083 477.412C709.114 477.564 709.118 477.716 709.097 477.867C708.798 480.027 703.276 481.996 696.813 482.222C696.212 482.243 695.604 482.249 694.99 482.238C693.332 482.21 691.326 482.091 689.056 481.9C687.921 481.804 686.721 481.691 685.465 481.562C682.952 481.303 680.218 480.981 677.345 480.616C675.909 480.433 674.437 480.24 672.943 480.038C663.973 478.823 654.139 477.296 645.709 475.959C642.899 475.514 640.246 475.089 637.833 474.705C635.418 474.32 633.244 473.975 631.394 473.689C559.711 462.624 479.993 446.558 412.951 429.163C368.097 417.524 334.419 402.654 294.497 388.133C289.398 386.278 286.573 383.129 286.34 379.842C285.539 368.564 278.726 356.885 279.505 346.271C279.531 345.914 279.561 345.557 279.598 345.201C281.88 322.753 304.128 302.593 330.025 285.664C341.896 277.892 356.925 267.188 376.171 266.603C376.941 266.58 377.717 266.573 378.501 266.582C383.201 266.641 388.148 267.314 393.354 268.779C397.146 269.853 399.241 272.735 403.377 273.385C404.217 273.519 405.132 273.589 406.111 273.602C406.391 273.605 406.676 273.604 406.967 273.598C424.245 273.256 459.865 256.696 473.894 252.204C539.849 231.036 607.58 225.51 680.244 215.336C706.26 211.69 731.375 206.264 757.497 202.858C786.536 199.071 851.562 197.291 870.497 188.247C875.403 185.902 878.046 184.092 880.197 182.676C880.627 182.392 881.037 182.125 881.443 181.872C882.05 181.493 882.645 181.147 883.276 180.83C883.591 180.672 883.915 180.521 884.254 180.377C887.756 178.886 892.843 178.126 906.113 177.579C912.962 177.296 919.866 177.178 926.788 177.155C928.518 177.149 930.25 177.15 931.982 177.155C947.569 177.203 963.189 177.649 978.39 177.713C980.079 177.721 981.763 177.723 983.441 177.72C985.119 177.716 986.791 177.708 988.457 177.692ZM370.179 366.525C364.872 365.909 360.906 368.532 362.431 371.31C367.111 379.829 387.729 391.986 401.053 392.379C401.537 392.394 402.012 392.393 402.476 392.375C404.1 392.314 405.592 392.053 406.905 391.561C420.13 386.604 389.733 368.797 370.179 366.525ZM520.648 298.326C517.809 290.811 478.78 302.68 470.998 311.487C470.862 311.641 470.735 311.794 470.618 311.947C469.916 312.862 469.574 313.738 469.669 314.55C469.768 315.39 470.837 316.078 472.294 316.126C472.502 316.133 472.719 316.127 472.941 316.106C473.282 316.075 473.65 316.032 474.043 315.978C486.219 314.309 522.119 302.224 520.648 298.326Z" fill="var(--fill-0, #99D1FF)" fill-opacity="0.5"/>
<path d="M643.902 312.747C646.604 309.604 650.359 308.562 649.713 312.002C645.47 335.572 658.173 343.754 690.182 359.015C765.442 394.934 861.862 406.197 960.43 409.122C960.44 409.123 960.449 409.125 960.456 409.129C960.466 409.134 960.471 409.142 960.468 409.149C959.452 411.583 955.347 411.992 951.297 412.006C937.745 412.062 910.721 409.915 895.87 408.94C804.509 402.948 705.617 381.667 643.747 344.22C620.332 330.046 633.333 325.043 643.902 312.747Z" fill="var(--fill-0, #99D1FF)" fill-opacity="0.5"/>
<path d="M849.246 274.259C899.051 265.696 968.109 259.112 1020.25 262.22C1024.21 262.459 1028.38 262.517 1029.41 265.042C1029.42 265.062 1029.41 265.083 1029.38 265.098C1029.36 265.11 1029.33 265.117 1029.29 265.116C975.1 263.637 870.161 269.307 831.904 291.923C790.506 316.397 841.927 337.976 883.695 346.271C956.094 360.67 1061.93 365.021 1130.83 343.896C1142.73 340.254 1152.22 335.078 1162.95 330.693C1166.08 329.412 1170.48 329.653 1173.24 331.152L1174.83 332.009C1175.93 332.604 1177.54 332.837 1179.05 332.618C1183.69 331.945 1186.63 335.191 1182.76 336.707L1177.49 338.77C1176.91 338.999 1176.41 339.286 1176.04 339.616L1173.57 341.77C1172.41 342.792 1171.67 343.998 1170.06 344.834C1161.01 349.551 1120.09 354.838 1111 355.921C1025.44 366.081 947.609 363.481 866.353 345.62C845.561 341.056 814.824 328.197 806.152 316.991C802.881 312.749 804.129 301.609 798.235 298.365C796.457 297.387 793.565 297.704 791.273 298.307C770.529 303.77 758.479 318.12 776.211 328.705C805.754 346.355 842.325 352.827 883.643 358.988C912.417 363.27 968.507 371.225 996.618 371.903C998.934 371.959 1001.38 371.881 1003.91 371.719C1013.5 371.106 1013.66 372.814 1004.18 373.783L969.462 374.863C962.636 375.076 957.98 378.092 964.237 379.562C970.257 380.961 995.768 382.007 1004.2 382.261C1058.75 383.915 1116.57 379.885 1168.48 370.733C1172.18 370.08 1174.23 367.986 1173.19 365.983C1172.73 365.088 1171.7 364.283 1170.01 364.064C1162.6 363.111 1145.21 364.553 1126.11 366.342C1108.53 367.989 1107.98 364.984 1125.48 363.111L1126.91 362.959C1173.02 357.422 1217.98 345.999 1248.92 326.646C1249.1 326.531 1249.27 326.408 1249.42 326.28C1252.47 323.665 1260.05 324.788 1260.13 327.869L1260.28 333.98C1260.3 334.492 1260.41 335.021 1260.96 335.441C1265.75 339.113 1287.06 337.915 1280.67 343.966C1278.42 346.1 1210.18 366.152 1200.74 368.399C1114.66 388.973 960.578 389.722 870.437 375.916C830.896 369.868 758.258 352.799 741.948 331.447C733.541 320.453 744.918 299.639 755.446 289.238C764.755 280.039 797.03 269.13 816.151 269.328C816.278 269.329 816.41 269.329 816.548 269.327C823.156 269.227 821.329 271.334 814.971 272.298C809.315 273.156 803.65 274.153 799.045 275.757C795.438 277.015 780.64 284.915 792.336 284.915C809.812 284.915 831.717 277.269 849.246 274.259Z" fill="var(--fill-0, #99D1FF)" fill-opacity="0.5"/>
<path d="M1513.49 369.955C1543.96 367.016 1555.34 378.079 1528.4 379.408C1517.1 379.959 1507.82 377.854 1500.98 373.134C1504.03 371.128 1508.96 370.393 1513.49 369.955Z" fill="var(--fill-0, #99D1FF)" fill-opacity="0.5"/>
<path d="M1153.41 308.06C1151.97 306.762 1152.75 306.171 1155.57 306.326C1159.56 306.546 1163.27 307.806 1164.25 309.878C1167.58 316.914 1159.96 323.625 1148.37 327.861C1137.12 331.973 1087.58 343.815 1073.82 346.019C1026.68 353.592 979.028 351.941 931.328 346.997C931.325 346.997 931.325 346.994 931.328 346.994L936.631 346.263C939.009 345.935 941.486 345.884 943.907 346.103C998.864 351.065 1061.81 352.362 1106.56 331.991C1107.24 331.682 1107.87 331.339 1108.43 330.966C1113.09 327.822 1115.92 324.389 1116.19 320.756C1116.46 316.942 1118.69 314.495 1124.59 316.662C1131.33 319.14 1140.17 321.977 1149.93 317.39C1157.97 313.62 1155.73 310.141 1153.41 308.06Z" fill="var(--fill-0, #99D1FF)" fill-opacity="0.5"/>
<path d="M1508.9 327.972C1511 318.152 1534.86 321.473 1535.37 330.064C1530.75 329.103 1507.97 332.353 1508.9 327.972Z" fill="var(--fill-0, #99D1FF)" fill-opacity="0.5"/>
<path d="M918.89 294.552C952.729 285.65 1073.92 286.639 1108.06 295.908C1111.78 296.923 1115.04 297.825 1114.11 300.422C1114.11 300.424 1114.1 300.424 1114.1 300.422L1114.1 300.419C1112.52 301.124 1081.19 295.738 1074.99 295.159C1031.52 291.09 944.695 284.986 910.087 301.123C909.719 301.294 909.359 301.464 909.006 301.634C896.273 307.753 867.631 320.066 853.115 315.202C847.754 313.406 844.673 310.05 847.028 306.917C851.728 300.665 860.599 295.932 870.292 291.409C871.235 290.968 872.636 290.954 873.617 291.37C875.399 292.128 874.658 293.823 872.696 294.442C859.089 298.728 855.305 313.421 874.417 313.12C877.864 313.064 908.839 297.195 918.89 294.552Z" fill="var(--fill-0, #99D1FF)" fill-opacity="0.5"/>
<path d="M1157.01 252.868C1157.01 252.868 912.898 242.538 1016.11 243.965C1119.33 245.393 1231.56 250.028 1317.88 282.896C1331.99 288.266 1365.64 303.556 1368.06 312.755C1368.24 313.448 1368.26 314.086 1368.11 314.652C1367.23 317.99 1359.05 315.407 1356.08 312.43C1319.85 276.108 1228.58 259.783 1157.01 252.868Z" fill="var(--fill-0, #99D1FF)" fill-opacity="0.5"/>
<path d="M1095.59 204.427C1185.28 208.356 1271.55 213.598 1356.63 229.806C1405.61 239.132 1452.57 256.697 1486.44 277.808C1502.78 288.011 1542.1 313.954 1490.39 311.694L1490.36 311.708C1502.17 299.81 1491.66 290.554 1478.22 280.776C1452.36 262.01 1389.03 241.195 1347.95 233.014C1269.14 217.314 1179.05 212.241 1095.59 208.652V204.427Z" fill="var(--fill-0, #99D1FF)" fill-opacity="0.5"/>
<path d="M1167.73 282.988C1157.27 280.609 1158.89 277.843 1168.7 280.905C1178.87 284.078 1188.31 287.68 1196.31 291.235C1197.38 291.713 1201.85 293.704 1206.16 295.845C1212.33 298.914 1209.84 299.829 1203.12 297.108L1169.89 283.655C1169.22 283.386 1168.5 283.162 1167.73 282.988Z" fill="var(--fill-0, #99D1FF)" fill-opacity="0.5"/>
<path d="M783.357 251.587C791.752 250.12 793.988 254.417 785.656 255.982C758.288 262.228 723.521 273.843 702.172 284.908C695.038 288.615 692.483 292.255 687.895 294.524C679.002 298.923 670.995 290.276 679.054 285.443C706.187 269.173 743.654 258.526 783.357 251.587Z" fill="var(--fill-0, #99D1FF)" fill-opacity="0.5"/>
<path d="M1079.85 223.213C1133.81 225.253 1189.03 227.006 1241.27 234.782C1249.38 235.997 1268.74 238.838 1275 240.802C1284.52 243.798 1286.38 245.903 1300.56 249.775C1323.16 255.936 1344.43 263.242 1368.46 268.004H1368.48L1367.16 289.129C1293.59 249.93 1180.14 236.322 1078.7 232.479L1069.07 222.799L1079.85 223.213Z" fill="var(--fill-0, #99D1FF)" fill-opacity="0.5"/>
<path d="M1129.12 160.686C1137.67 160.747 1146.36 160.318 1154.89 160.822C1198.51 163.408 1258.29 170.502 1302.28 175.448C1448.91 191.938 1591.75 214.025 1704.7 268.781L1731.45 287.688L1731.43 287.716C1726.97 289.709 1705.73 284.311 1701.59 282.135C1697.08 279.775 1696.32 275.776 1691.7 272.893C1599.09 215.254 1413 192.192 1278.55 178.231C1236.04 173.822 1178.15 173.37 1139.29 164.905C1136.03 164.199 1128.02 162.701 1127.41 160.667L1129.12 160.686Z" fill="var(--fill-0, #99D1FF)" fill-opacity="0.5"/>
<path d="M990.811 272.126C1031.94 271.281 1072.21 276.352 1112.21 280.314C1114.77 280.568 1116.65 281.746 1116.69 283.133C1116.74 284.836 1114.04 286.198 1110.86 286.032C1081.42 284.499 1052.6 280.039 1022.82 279.191C986.607 278.163 951.16 280.655 915.464 282.837C909.464 283.203 905.118 281.611 910.615 280.279C930.028 275.574 969.224 272.578 990.811 272.126Z" fill="var(--fill-0, #99D1FF)" fill-opacity="0.5"/>
<path d="M1763.23 255.272C1776.7 256.092 1790.67 257.576 1787.04 266.548C1785.55 267.606 1764.16 257.576 1763.23 255.272Z" fill="var(--fill-0, #99D1FF)" fill-opacity="0.5"/>
<path d="M732.593 241.142L642.08 262.762L621.368 263.695L639.295 257.025C671.358 253.252 700.318 244.11 732.619 241.128L732.593 241.142Z" fill="var(--fill-0, #99D1FF)" fill-opacity="0.5"/>
<path d="M849.731 250.62C867.181 247.695 879.141 248.585 896.856 249.603H896.884L897.016 250.24C897.577 253.142 896.54 251.873 892.985 252.443C884.181 253.856 834.588 262.631 830.663 260.879C829.045 257.474 835.489 257.798 837.823 256.173C842.172 253.163 835.252 253.051 849.731 250.62Z" fill="var(--fill-0, #99D1FF)" fill-opacity="0.5"/>
<path d="M1551.36 183.966C1555.02 181.125 1556.85 181.931 1562.05 182.468C1631.56 189.533 1671.34 203.325 1729.71 221.624C1737.24 223.984 1747.71 225.143 1753.65 227.206C1762.48 230.27 1766.72 238.682 1779.12 239.751C1779.84 241.97 1775.45 241.265 1772.75 241.039C1734.72 237.69 1699.69 220.564 1665.29 210.758C1628.51 200.273 1589.34 193.066 1551.36 183.966Z" fill="var(--fill-0, #99D1FF)" fill-opacity="0.5"/>
<path d="M1779.14 239.754L1779.12 239.751C1779.11 239.748 1779.11 239.744 1779.11 239.74L1779.14 239.754Z" fill="var(--fill-0, #99D1FF)" fill-opacity="0.5"/>
<path d="M972.099 218.744C974.645 218.688 975.628 220.468 973.439 221.164C971.565 221.76 971.971 223.23 974.089 223.509C980.962 224.417 987.527 225.488 989.437 228.661C990.815 230.952 986.607 232.869 982.135 233.198L894.357 239.652C893.424 239.721 892.48 239.751 891.539 239.729C885.259 239.581 886.002 239.128 892.77 238.243C896.544 237.75 900.933 237.597 904.381 236.95C911.858 235.549 904.547 231.014 896.627 230.839C856.136 229.945 815.709 232.033 775.607 235.783C770.174 236.291 768.096 234.812 773.325 233.877C793.559 230.203 823.924 227.702 845.564 225.794C887.278 222.101 929.727 219.679 972.099 218.744Z" fill="var(--fill-0, #99D1FF)" fill-opacity="0.5"/>
<path d="M523.319 221.34C523.876 219.079 532.946 218.415 536.553 217.821C553.26 215.094 572.275 212.197 589.539 211.491L523.319 221.34Z" fill="var(--fill-0, #99D1FF)" fill-opacity="0.5"/>
<path d="M956.576 160.722C984.236 160.114 1012.08 156.851 1039.93 157.854C1039.94 157.854 1039.95 157.86 1039.95 157.867C1038.12 160.725 1029.92 161.613 1025.13 161.952C981.292 165.004 932.973 163.675 887.625 166.332C829.811 169.709 770.858 173.822 713.124 177.807C685.601 179.707 658.345 182.639 631.074 185.409C617.879 186.748 613.799 181.823 626.644 179.728C722.009 164.297 856.544 162.94 956.576 160.722Z" fill="var(--fill-0, #99D1FF)" fill-opacity="0.5"/>
<path d="M1516.83 149.371C1527.31 148.608 1536.11 150.219 1545.95 151.491C1559.18 153.201 1656.35 168.744 1656.91 172.63L1651.92 180.431C1613.87 173.436 1573.03 165.805 1537.07 156.225C1530.7 154.529 1521.31 152.24 1516.83 149.371Z" fill="var(--fill-0, #99D1FF)" fill-opacity="0.5"/>
<path d="M409.368 176.181C440.025 162.05 479.752 154.208 520.619 156.44H520.645C521.069 160.736 512.291 162.291 506.191 163.548C475.8 169.851 440.157 170.175 409.368 176.181Z" fill="var(--fill-0, #99D1FF)" fill-opacity="0.5"/>
<path d="M1118.08 85.8418C1287.33 82.5743 1463.66 102.328 1629.17 118.829C1630.27 118.938 1631.34 119.104 1632.37 119.324L1784.23 151.578C1793.76 154.063 1778.45 162.078 1767.84 162.078H1740.72C1738.96 162.078 1737.21 161.933 1735.53 161.65C1567.36 133.249 1398.83 107.125 1220.28 106.73C1216.25 106.721 1212.34 105.968 1209.23 104.598C1194.71 98.2 1182.07 93.3214 1160.54 92.8369C1151.31 92.6249 1140.25 94.8006 1134.13 94.3625C1130.28 94.0871 1124.98 91.2054 1119.25 89.1897C1113.98 87.336 1111.77 85.9808 1118.08 85.8418Z" fill="var(--fill-0, #99D1FF)" fill-opacity="0.5"/>
<path d="M1042.62 160.634C1046.54 156.739 1055.17 157.938 1063.01 157.748C1065.64 157.684 1069.14 159.632 1068.1 160.92C1067.65 161.474 1066.59 161.811 1065.46 161.756L1042.62 160.634Z" fill="var(--fill-0, #99D1FF)" fill-opacity="0.5"/>
<path d="M1042.62 160.638C1042.61 160.64 1042.61 160.639 1042.61 160.636C1042.61 160.635 1042.61 160.634 1042.61 160.634H1042.62C1042.62 160.635 1042.62 160.637 1042.62 160.638Z" fill="var(--fill-0, #99D1FF)" fill-opacity="0.5"/>
<path fill-rule="evenodd" clip-rule="evenodd" d="M571.986 68.7308C585.908 67.7699 626.111 62.4004 635.818 63.2197C645.524 64.0392 645.552 68.1512 635.846 70.2991C574.187 83.8929 470.574 82.3247 401.384 92.188C371.629 96.4272 341.104 105.57 311.376 110.586C257.78 119.616 204.845 120.788 151.249 126.907C97.6528 133.025 51.3754 145.192 1.35918 153.628L1.38693 153.6V128.193C55.3811 119.743 111.338 115.885 166.207 109.427C194.954 106.05 224.338 102.842 253.112 99.2674C290.743 94.6043 330.311 85.136 366.405 81.999C434.189 76.0923 503.804 73.4222 571.986 68.7308ZM343.148 94.3216C337.605 94.1521 332.14 94.2509 326.624 94.6748C259.636 99.8608 192.939 112.663 127.542 118.456C123.325 118.824 61.4012 125.763 72.9373 131.005C103.912 131.584 131.97 122.922 162.335 120.082C213.2 115.306 267.565 113.525 317.236 105.216C327.234 103.549 344.5 101.429 343.148 94.3216Z" fill="var(--fill-0, #99D1FF)" fill-opacity="0.5"/>
<path d="M680.504 141.136C701.002 144.57 657.882 153.994 647.194 153.359C643.853 153.161 629.718 150.25 629.506 148.696L637.542 139.652L680.504 141.136Z" fill="var(--fill-0, #99D1FF)" fill-opacity="0.5"/>
<path d="M1341.99 137.377C1350.45 133.124 1366.2 136.078 1376.43 137.364C1395.16 139.706 1423.77 145.178 1437.29 152.159C1437.31 152.164 1437.33 152.168 1437.35 152.172V152.187C1437.33 152.178 1437.31 152.169 1437.29 152.159C1406.84 144.806 1374.51 141.162 1341.99 137.377Z" fill="var(--fill-0, #99D1FF)" fill-opacity="0.5"/>
<path d="M1124.74 126.779C1148.79 124.264 1175.02 126.086 1198.91 128.87C1214.14 130.65 1302.31 143.368 1308.94 146.477C1310.77 147.325 1316.05 151.917 1315.47 152.157V152.171C1284.12 148.695 1252.62 145.332 1220.98 142.535C1198.01 140.5 1169.4 142.28 1153.09 133.533L1124.74 126.779Z" fill="var(--fill-0, #99D1FF)" fill-opacity="0.5"/>
<path d="M988.162 123.911C1021.18 123.176 1054.59 124.56 1087.6 123.981C1079.69 140.087 1054.19 134.396 1030.54 135.201C972.063 137.18 907.912 137.943 850.523 140.925C825.17 142.239 800.082 145.884 774.995 147.947C781.094 144.259 790.191 137.858 797.909 135.47C817.959 129.267 956.444 124.603 988.162 123.911Z" fill="var(--fill-0, #99D1FF)" fill-opacity="0.5"/>
<path d="M764.413 128.209C760.78 132.801 715.304 145.532 711.587 143.64C713.602 137.748 695.7 137.62 702.357 132.335L764.387 128.209H764.413Z" fill="var(--fill-0, #99D1FF)" fill-opacity="0.5"/>
<path d="M898.255 87.2683C962.724 83.9335 1028.41 83.51 1092.96 85.8557C1092.95 85.8557 1092.93 85.861 1092.93 85.8688C1089.96 89.8959 1075.14 89.4621 1071.56 92.4263C1071.15 92.7642 1070.81 93.1041 1070.51 93.4457C1066.06 98.647 1061.86 104.418 1051.14 104.577C1033.69 104.835 1016.08 104.987 998.923 105.625C890.802 109.61 780.772 108.818 673.367 115.671C584.884 121.323 496.882 132.074 408.211 137.05C398.863 137.575 393.976 131.755 388.166 127.818C387.602 127.436 386.949 127.088 386.219 126.768C378.76 123.502 377.678 119.273 387.218 118.483C454.711 112.93 525.281 114.216 593.171 109.637C646.21 106.062 700.045 97.3013 752.554 94.3338C800.846 91.5925 849.883 89.7695 898.255 87.2683Z" fill="var(--fill-0, #99D1FF)" fill-opacity="0.5"/>
<path d="M1735.99 108.663C1742.09 107.688 1783.94 116.436 1787.28 118.909C1791.76 122.229 1789.24 127.076 1789.72 131.018C1786.22 132.869 1732.54 120.618 1724 118.696C1721.83 118.216 1715.78 118.809 1718.22 116.21C1718.73 115.673 1734.9 108.835 1735.99 108.663Z" fill="var(--fill-0, #99D1FF)" fill-opacity="0.5"/>
<path d="M1087.61 123.981C1087.61 123.982 1087.6 123.981 1087.6 123.981C1087.6 123.977 1087.61 123.972 1087.61 123.968V123.981Z" fill="var(--fill-0, #99D1FF)" fill-opacity="0.5"/>
<path d="M1205.99 66.0579C1201.38 64.899 1204.16 58.6676 1210.56 59.0915C1230.82 60.2927 1251.5 62.4121 1271.76 63.2458C1363.31 67.0187 1442.89 70.0856 1533.22 80.6412C1542.5 81.7293 1611.98 89.586 1612.14 92.2002L1609.28 95.5977C1609.29 95.5951 1609.3 95.5942 1609.31 95.5916L1609.28 95.6055L1609.28 95.5985C1604.8 97.3331 1524.8 86.1505 1512.08 84.8381C1432.18 76.5998 1350.15 72.954 1269.08 68.9126C1248.45 67.8811 1226.92 69.4634 1205.99 66.0579Z" fill="var(--fill-0, #99D1FF)" fill-opacity="0.5"/>
<path d="M908.658 57.5667C970.343 56.7472 1032.4 54.1464 1093.74 56.4638L1106.15 64.6601H1106.18L1097.16 64.8888C1052.04 65.9843 1006.82 66.3969 961.671 67.4435C906.669 68.7153 853.046 71.7259 797.408 70.3835C783.113 70.0443 752.138 69.2811 739.938 67.119C727.74 64.957 719.811 58.5976 736.438 57.552C781.283 54.7399 842.226 59.7142 890.333 59.0924C896.591 59.0076 902.4 57.6515 908.658 57.5667Z" fill="var(--fill-0, #99D1FF)" fill-opacity="0.5"/>
<path d="M208.057 55.5027C223.943 52.6058 283.081 43.6608 294.856 49.4827C309.123 56.5339 264.28 66.6093 255.209 67.9236C244.018 69.5486 186.842 72.7561 184.056 66.5954C180.237 58.1876 197.025 57.5092 208.057 55.5027Z" fill="var(--fill-0, #99D1FF)" fill-opacity="0.5"/>
<path d="M1019.93 1.08618C1101.02 -2.10732 1180.72 2.32967 1261.15 6.78085C1397.46 14.3126 1541.62 22.184 1675.84 37.1061C1712.6 41.1899 1749.03 46.9977 1785.26 52.2261L1789.32 54.204L1787.01 61.8454C1787.02 61.8464 1787.03 61.8478 1787.04 61.8488L1787.01 61.8628L1787.01 61.8454C1681.53 46.4872 1573.17 36.3985 1464.8 28.1609C1404.04 23.5402 1337.79 18.5943 1277.01 15.2876C1181.56 10.1017 1082.78 12.829 986.936 13.154C995.502 6.48445 1016.56 11.0766 1024.01 5.39611L1002.82 5.36828C1000.62 1.27035 1015.5 1.25575 1019.93 1.08618Z" fill="var(--fill-0, #99D1FF)" fill-opacity="0.5"/>
<path d="M1145.27 34.1565C1157.18 34.0898 1169.46 33.5262 1180.91 34.0356C1189.24 34.403 1211.17 36.3535 1218.57 37.9785C1224.2 39.2217 1229.17 42.1135 1235 43.8932C1240.55 45.5878 1242.83 46.9333 1236.44 46.8106C1223.47 46.5702 1143.3 41.9348 1137.87 39.3206C1133.41 37.1925 1139.28 34.1902 1145.27 34.1565Z" fill="var(--fill-0, #99D1FF)" fill-opacity="0.5"/>
<path d="M998.245 35.022C998.271 35.0221 998.291 35.0353 998.286 35.049C996.183 40.4125 987.856 39.6303 980.442 40.3879C930.211 45.5843 872.615 45.3918 818.761 45.5459C813.338 45.5611 812.234 41.243 817.478 40.5053C817.776 40.4635 818.08 40.438 818.387 40.4288L998.245 35.022Z" fill="var(--fill-0, #99D1FF)" fill-opacity="0.5"/>
<path d="M501.493 24.1041C519.553 22.578 551.351 22.649 545.941 36.4407C532.946 42.3613 512.34 42.9405 495.765 41.9231C491.362 41.6545 465.667 38.7437 468.901 34.9994C480.994 30.4776 486.059 25.4044 501.467 24.0902L501.493 24.1041Z" fill="var(--fill-0, #99D1FF)" fill-opacity="0.5"/>
</g>
</svg>
