<svg preserveAspectRatio="none" width="100%" height="100%" overflow="visible" style="display: block;" viewBox="0 0 933.082 1065.72" fill="none" xmlns="http://www.w3.org/2000/svg">
<g id="Union">
<path fill-rule="evenodd" clip-rule="evenodd" d="M461.352 732.693C441.028 728.292 424.379 740.367 404.785 744.627C390.031 747.834 323.324 751.529 317.636 761.139C308.914 775.882 345.401 784.889 352.688 790.291C368.017 801.672 371.205 830.978 355.722 842.885C343.171 852.559 278.19 867.276 274.399 880.723V880.697C271.595 890.628 292.777 896.493 299.155 899.02C312.089 904.127 325.524 907.835 339.061 910.966C346.04 912.582 353.046 914.032 360.064 915.443C363.24 916.085 377.89 916.945 379.517 919.485C380.836 921.564 376.726 932.008 376.47 935.062C376.06 939.822 376.367 944.647 377.609 949.266C380.298 959.235 387.163 967.203 395.603 972.887C406.617 980.303 435.586 985.667 429.605 1004.05C423.214 1023.74 345.58 1019.37 343.659 1038.26C342.724 1047.52 358.899 1054.76 362.728 1065.54H695.371C696.536 1065.54 699.289 1066.04 700.237 1065.39C701.338 1064.62 702.236 1061.73 702.786 1060.51C706.82 1051.54 707.793 1040.84 702.696 1032.09C700.032 1027.51 695.96 1023.94 691.349 1021.4C687.469 1019.27 683.294 1017.74 678.927 1016.9C677.364 1016.6 675.661 1016.45 674.227 1017.15C673.702 1017.41 673.855 1017.81 674.316 1018.05C674.841 1018.33 675.456 1018.32 675.982 1018.55C676.084 1018.6 676.186 1018.72 676.16 1018.85C676.147 1018.91 676.109 1018.96 676.071 1019.01C673.407 1022.62 668.592 1018.68 665.774 1017.38C663.239 1016.22 660.767 1014.6 658.116 1013.68C652.968 1011.89 638.086 1013.92 637.92 1002.42C637.804 994.982 646.705 989.17 652.007 985.449C659.115 980.445 666.005 975.261 673.459 970.796C677.749 968.23 682.026 965.175 684.19 960.672C686.329 956.207 685.663 951.768 683.883 947.367C683.166 945.596 682.499 943.992 682.448 942.055C682.269 935.396 681.719 929.557 678.761 923.604C675.802 917.65 671.486 912.454 666.696 907.886C657.066 898.687 645.45 891.758 633.758 885.548C623.09 879.877 608.489 876.566 599.601 871.061C574.066 855.215 616.391 851.52 624.203 845.246C629.211 841.23 637.484 821.637 642.185 814.554C647.96 805.868 668.425 783.838 665.045 774.715C653.595 743.857 510.942 749.514 478.655 740.995C471.381 739.07 466.206 733.745 461.352 732.693ZM416.286 882.083C418.552 881.916 420.934 882.84 422.048 884.829C423.06 886.625 429.028 888.165 429.054 891.976C429.105 900.611 400.636 901.766 396.154 896.056V896.069C389.238 887.28 405.566 882.878 416.286 882.083ZM444.076 780.155C459.483 777.178 483.099 776.332 498.812 777.204C513.335 778.012 593.236 788.867 552.037 812.681C527.089 827.09 428.068 832.607 402.173 820.187C393.169 815.876 389.238 805.444 397.422 798.143C399.386 796.396 439.223 781.091 444.076 780.155Z" fill="var(--fill-0, #99D1FF)" fill-opacity="0.3"/>
<path d="M383.257 987.791C363.944 985.726 363.611 1004.96 383.551 1005.22C396.473 1005.38 401.122 989.703 383.257 987.791Z" fill="var(--fill-0, #99D1FF)" fill-opacity="0.3"/>
<path d="M756.188 997.304C764.281 984.73 731.201 972.117 720.687 985.474C708.815 1000.56 749.156 1008.21 756.188 997.304Z" fill="var(--fill-0, #99D1FF)" fill-opacity="0.3"/>
<path d="M322.155 677.297C307.618 676.078 210.676 670.381 206.395 677.297L206.408 677.284C212.734 681.8 198.044 684.765 202.796 693.708C206.445 700.572 246.007 706.089 254.408 706.718C275.937 708.334 379.822 707.719 394.09 699.315C402.312 694.465 403.99 688.447 393.501 685.291C381.308 681.621 337.651 678.592 322.155 677.297Z" fill="var(--fill-0, #99D1FF)" fill-opacity="0.3"/>
<path d="M487.515 611.563C460.044 611.306 412.057 612.691 386.239 615.809C381.219 616.117 371.691 618.645 370.154 622.982L370.129 623.072L370.141 623.047C369.847 624.779 372.164 625.138 373.688 625.305C392.476 627.075 444.791 622.084 467.844 625.6C478.947 628.487 495.916 635.671 504.65 640.855C521.21 650.773 478.217 657.587 470.687 659.076C436.083 664.054 400.442 661.462 365.198 663.169C360.088 663.579 355.157 664.567 350.188 664.529C345.783 664.644 340.404 663.81 336.434 664.477C333.936 664.965 332.502 665.953 332.925 666.915C333.322 667.955 335.653 668.981 338.867 669.7C344.553 670.893 351.443 671.56 357.488 672.137C372.638 673.625 385.522 673.856 399.942 672.766C409.458 671.957 418.755 672.034 428.104 673.33C436.39 674.036 444.33 673.035 452.834 674.061C482.674 676.499 514.807 689.536 538.883 679.464C546.004 675.923 551.319 668.378 557.389 663.297C561.551 659.64 565.457 657.728 570.375 656.175C584.257 651.749 613.61 644.345 614.379 636.441C614.122 631.001 604.863 628.269 599.997 626.806C582.221 621.777 561.897 623.855 543.16 621.904C542.776 621.776 542.712 621.634 543.071 621.442C549.116 619.286 553.7 618.491 543.544 616.631C526.691 614.334 505.009 611.627 487.515 611.563Z" fill="var(--fill-0, #99D1FF)" fill-opacity="0.3"/>
<path d="M193.326 666.905C196.054 652.637 160.336 654.099 155.213 660.245C142.317 675.719 191.148 678.272 193.326 666.905Z" fill="var(--fill-0, #99D1FF)" fill-opacity="0.3"/>
<path d="M733.217 622.319C746.651 607.461 710.767 611.58 703.442 613.748L703.134 613.812C694.477 616.045 676.433 619.291 673.91 628.529C672.872 638.511 691.813 638.833 698.793 638.756C703.659 638.602 708.923 638.19 712.074 636.856C712.97 636.368 712.727 635.74 713.187 635.022C718.925 630.236 727.915 627.631 733.217 622.319Z" fill="var(--fill-0, #99D1FF)" fill-opacity="0.3"/>
<path d="M646.937 596.671C637.754 595.837 604.726 600.456 620.299 607.603C631.877 612.222 672.589 613.633 683.142 609.001L683.231 608.95C685.229 607.462 683.116 605.78 681.618 604.702C673.127 599.07 658.027 596.979 646.937 596.671Z" fill="var(--fill-0, #99D1FF)" fill-opacity="0.3"/>
<path d="M719.817 511.867C714.233 511.021 707.574 511.688 701.862 512.766C696.701 513.715 691.566 515.203 686.418 516.281C658.691 521.542 625.009 520.99 597.154 528.15C586.678 531.178 582.925 536.426 574.422 537.76C564.445 539.48 553.445 536.297 542.918 535.514C534.388 534.77 526.639 535.309 517.867 536.284C507.967 537.362 497.747 538.838 487.809 540.031C454.73 544.124 423.084 543.47 390.094 543.765C386.163 543.868 370.794 543.893 370.935 546.549C371.818 547.332 373.177 547.472 374.432 547.716C378.991 548.614 389.864 548.461 397.407 547.794C412.186 546.703 427.196 545.381 441.936 546.998C444.766 547.281 443.497 552.161 437.965 552.802C388.313 553.636 349.796 556.021 300.336 549.58C296.994 549.08 292.094 547.929 291.531 547.621C290.532 547.134 292.263 543.816 298.436 544.162C308.553 544.701 320.745 545.997 330.299 545.817C336.779 545.753 340.877 545.215 339.981 544.445C336.561 542.61 324.498 542.007 318.21 541.378C305.557 540.48 292.314 538.876 279.635 538.453C270.735 538.453 266.778 540.403 261.028 542.225C254.24 544.342 247.107 546.306 240.754 549.398C240.575 549.513 240.575 549.5 240.267 549.719C239.038 550.604 238.603 551.604 239.077 552.618C239.372 553.208 239.883 553.773 240.473 554.209C244.66 557.353 253.331 558.636 259.696 559.085C317.16 563.589 376.25 562.048 434.483 564.986C447.648 565.615 460.301 566.835 473.415 568.773C488.014 570.582 504.343 574.533 519.02 572.878C532.018 571.377 544.018 563.602 556.658 559.431C570.925 554.273 586.729 553.144 601.47 550.398C614.981 547.884 625.675 541.391 639.403 538.889C643.232 538.196 647.766 537.644 651.377 537.413C654.04 537.246 655.309 537.349 655.169 537.619L655.091 537.631C655.424 538.273 642.477 540.403 648.394 541.006C663.852 541.827 680.474 539.889 694.472 533.269C703.373 529.445 715.335 526.712 723.39 522.375C730.741 518.282 728.167 512.932 719.817 511.867Z" fill="var(--fill-0, #99D1FF)" fill-opacity="0.3"/>
<path d="M187.429 532.235C181.115 531.234 169.448 527.796 163.865 530.837L163.814 530.888C160.484 537.009 212.172 546.183 218.127 545.323C222.276 545.195 222.827 543.847 220.958 542.231C219.024 540.242 211.98 537.881 207.894 536.842C201.068 534.968 194.255 533.621 187.429 532.235Z" fill="var(--fill-0, #99D1FF)" fill-opacity="0.3"/>
<path d="M429.298 510.982C417.733 509.622 372.294 510.635 363.458 516.063C346.31 526.596 378.376 531.37 385.063 532.243C395.295 533.577 449.494 535.988 449.533 521.515C447.009 514.818 435.688 511.726 429.31 510.982H429.298Z" fill="var(--fill-0, #99D1FF)" fill-opacity="0.3"/>
<path d="M929.04 342.067C931.767 337.178 935.929 323.257 930.244 324.668L930.167 324.693V324.719C923.315 328.504 917.603 339.603 912.058 345.967C905.911 353.858 898.509 360.44 890.748 365.739C881.757 372.039 872.382 377.364 863.123 383.241C856.31 387.526 849.535 392.428 842.684 396.726C822.372 409.878 798.526 416.486 776.844 425.686C748.413 438.055 718.137 455.454 687.798 462.241C677.566 464.717 667.499 466.115 657.152 465.602C644.793 464.807 631.436 463.819 619.218 463.408C609.293 463.023 602.07 461.856 593.284 463.408C589.545 464.152 584.742 466.09 580.234 467.681C570.885 471.248 559.871 471.979 549.024 472.403C535.987 473.121 524.064 475.2 511.283 478.241C497.58 481.526 483.966 484.002 469.917 484.849C421.674 487.608 368.641 482.039 320.065 477.587C306.887 476.163 293.094 474.224 279.903 473.455C270.17 472.916 269.235 474.571 262.448 473.583C258.606 473.019 254.635 472.211 250.512 471.377C183.737 456.211 113.453 437.285 52.9152 404.066C42.4394 398.151 32.8088 391.286 23.1014 383.614C18.824 380.303 13.7018 376.274 9.48843 373.836C3.99432 370.756 0.38254 369.474 0.190438 373.041C0.677447 380.688 16.3914 396.059 25.0999 402.256C35.5374 410.134 46.7306 417.256 58.2566 424.21C74.9821 433.884 92.9623 441.224 110.7 448.242C135.442 457.981 159.455 469.336 185.299 476.073C231.57 488.095 283.501 497.924 331.424 498.963C383.97 498.257 437.465 496.217 490.126 496.281C528.008 496.332 566.48 498.193 604.029 492.483C624.878 489.134 641.643 482.18 662.902 479.14C679.205 477.151 695.124 474.738 710.787 469.901C723.465 466.334 737.591 460.291 749.386 454.402C759.285 449.359 767.29 444.573 778.073 440.159C791.943 434.68 806.44 429.509 819.951 422.914C853.8 406.503 911.328 375.042 929.04 342.067Z" fill="var(--fill-0, #99D1FF)" fill-opacity="0.3"/>
<path d="M484.667 464.954C475.958 464.608 465.264 465.095 458.618 469.33L458.465 469.432V469.445C452.125 473.602 457.529 478.684 466.763 477.644C474.293 476.592 502.2 470.381 502.328 467.302C502.263 467.135 502.084 466.969 501.802 466.815C496.475 465.096 490.622 465.378 484.667 464.954Z" fill="var(--fill-0, #99D1FF)" fill-opacity="0.3"/>
<path d="M170.416 378.184C161.196 377.928 187.974 389.078 189.28 389.694C191.355 390.682 191.227 390.989 187.718 390.207C184.068 389.437 177.357 388.026 174.617 388.09C174.258 388.09 173.963 388.116 173.733 388.167C173.285 388.257 173.067 388.437 173.041 388.719C172.864 390.336 180.074 396.199 187.898 401.164C193.827 404.924 199.27 408.427 205.674 411.365C232.965 422.22 273.485 430.83 302.838 437.9C325.557 442.994 348.764 447.048 372.328 448.921C381.472 449.64 389.322 447.83 397.608 449.062H397.698L397.711 449.036C408.135 450.666 416.972 450.063 428.472 450.255C443.033 451.064 457.582 453.296 472.028 453.36C515.276 453.258 566.44 451.769 605.423 443.648C612.634 441.684 618.871 440.119 623.789 435.589C627.515 431.907 628.45 426.775 629.731 424.517C630.179 423.708 630.794 423.066 631.69 422.822C633.086 422.386 635.712 422.592 639.964 422.592C640.578 422.592 641.219 422.592 641.885 422.58C647.251 422.477 652.54 421.976 657.842 420.462C670.533 416.613 682.431 408.401 695.251 404.333C710.081 398.996 733.645 395.301 744.774 385.986C745.978 384.946 747.31 383.368 746.324 381.969C745.863 381.443 744.992 381.072 743.712 380.879C739.114 380.315 733.402 381.571 728.535 382.675C707.519 387.692 677.333 398.265 654.486 404.154C645.65 406.4 636.288 409.761 628.783 411.699C613.159 416.112 595.665 416.728 578.658 418.627C496.042 432.562 411.094 436.244 328.593 423.4C292.055 417.575 256.58 407.849 221.848 395.557C205.993 390.566 185.72 380.456 170.416 378.184Z" fill="var(--fill-0, #99D1FF)" fill-opacity="0.3"/>
<path d="M854.813 180.997C853.468 176.455 852.662 171.746 847.117 173.914C841.008 177.353 848.526 195.932 849.614 202.63C851.048 208.263 852.15 214.113 852.688 219.887C853.456 226.983 854.097 236.491 856.491 242.021C857.349 244.369 858.438 246.229 859.424 247.718C860.832 249.257 860.82 250.862 859.885 252.876C857.081 259.522 853.161 264.129 847.91 270.223C826.805 298.913 796.85 322.291 764.244 336.353C720.253 353.701 674.122 372.344 627.262 382.301C478.422 416.623 263.282 413.48 146.843 302.378C138.928 294.192 129.631 287.044 126.16 276.805C124.636 271.545 123.816 265.719 122.459 260.215C119.987 252.529 112.494 216.897 104.874 218.707C100.558 222.402 101.917 236.721 103.402 243.355C106.143 259.406 110.715 274.637 120.256 287.788C165.887 350.685 270.966 389.973 345.642 401.252C359.896 402.971 378.21 403.548 391.644 405.37C392.233 405.46 392.629 405.537 392.809 405.601C393.116 405.768 392.681 405.781 392.399 405.858C390.529 406.128 383.921 407.154 381.77 408.245C376.815 411.376 398.739 411.811 403.17 411.606H403.4L403.413 411.632C412.698 411.375 421.368 411.632 430.64 412.376C488.988 416.893 559.669 415.751 616.147 405.781C625.009 403.998 632.731 401.932 641.76 399.122C697.406 380.415 783.236 346.695 828.406 311.666C838.369 303.057 846.489 290.932 853.596 279.564C860.768 268.183 866.839 259.663 871.027 248.026C877.238 230.383 871.411 210.239 861.768 194.675C858.387 188.709 856.478 185.95 854.813 180.997Z" fill="var(--fill-0, #99D1FF)" fill-opacity="0.3"/>
<path d="M772.859 154.206C767.929 150.061 758.824 142.287 752.433 144.031C747.618 147.547 760.064 160.48 762.678 164.214C774.434 178.251 783.565 195.521 785.474 212.779C789.931 244.817 772.539 280.821 747.81 301.363C719.916 324.741 684.314 336.623 650.914 349.543C637.62 354.393 624.237 358.949 610.956 363.812C598.29 368.508 585.458 372.523 571.947 373.755C503.546 380.35 434.108 380.863 366.091 369.983C361.839 369.444 332.115 363.836 342.386 367.544C347.79 369.315 354.885 370.881 360.007 372.433C360.853 372.741 361.929 372.985 362.608 373.345C362.736 373.396 363.004 373.537 362.838 373.627C356.793 373.319 349.66 371.343 343.475 369.983C315.812 363.413 288.674 353.751 262.369 342.755C243.043 335.083 223.103 327.769 205.084 317.081C196.645 312.333 188.525 305.931 179.957 301.594C171.735 297.476 170.788 301.479 175.769 307.894C182.864 317.03 193.648 324.535 203.766 330.553C291.658 380.414 395.035 393.745 494.876 389.152C517.326 387.907 540.033 389.011 562.381 386.06C582.167 382.429 603.08 381.005 622.226 376.373C642.269 370.868 661.812 362.233 680.882 353.713C716.356 337.854 749.027 322.2 774.589 291.945C789.201 275.278 802.379 252.67 803.57 230.755C803.519 230.601 803.43 230.64 803.34 230.755C803.097 231.05 802.956 231.448 802.751 231.833L802.725 231.897V231.845C802.136 233 801.329 235.297 801.085 232.115C800.586 227.997 801.15 221.248 800.881 216.295C800.753 208.969 800.24 201.629 798.626 194.495C795.194 178.585 784.949 165.189 772.859 154.206Z" fill="var(--fill-0, #99D1FF)" fill-opacity="0.3"/>
<path d="M161.008 379.595C165.349 371.166 126.726 351.189 121.039 356.013L120.961 356.076V356.089C118.951 358.886 123.791 363.171 125.661 365.263C131.45 371.024 140.709 377.709 149.443 379.993C153.106 380.878 158.241 382.174 161.008 379.595Z" fill="var(--fill-0, #99D1FF)" fill-opacity="0.3"/>
<path d="M722.492 189.556C721.57 189.71 721.967 192.443 723.068 196.767C730.266 219.413 726.628 243.202 713.232 263.026C703.947 277.589 691 287.867 676.183 296.502C650.518 311.014 608.063 335.944 579.581 335.7H579.427L579.44 335.726C574.291 335.456 571.102 335.045 565.083 335.764C459.158 352.316 326.02 348.774 238.882 279.077C231.326 273.534 224.206 276.062 229.917 284.723C231.608 287.096 233.887 289.137 236.256 290.984C312.995 344.784 414.079 351.47 505.25 350.918C519.863 350.944 506.21 353.215 500.371 354.036C431.803 363.697 358.894 351.546 293.439 329.451C247.821 313.99 181.175 282.478 195.237 223.533C197.081 215.539 201.089 207.687 203.331 199.912C207.173 185.387 192.291 195.151 187.963 200.001C163.604 224.559 171.813 269.339 195.762 291.716C266.929 360.541 452.525 373.73 549.28 358.68C557.63 357.063 564.315 353.83 572.344 352.29C577.595 351.238 583.026 350.879 588.456 349.532C600.315 346.555 613.275 343.385 624.558 339.587C650.76 329.579 675.657 313.4 699.234 294.603C708.301 287.007 716.575 279.36 723.106 269.634C733.736 253.659 738.641 232.771 735.017 213.807C733.813 207.623 731.648 201.759 728.472 196.473C725.847 192.06 723.414 189.313 722.492 189.556Z" fill="var(--fill-0, #99D1FF)" fill-opacity="0.3"/>
<path d="M898.239 216.056C897.073 213.233 893.283 203.2 890.004 206.28L889.928 206.369L889.915 206.395C888.084 208.576 887.43 216.479 888.211 218.982C888.352 219.392 888.48 219.867 888.839 220.034C890.132 220.65 892.118 214.683 893.04 215.209C893.437 215.517 893.462 215.954 893.577 216.583C893.948 219.085 893.859 225.218 894.308 230.825C894.948 240.319 896.497 249.969 895.127 259.169C889.44 287.371 859.575 311.415 837.919 332.047C836.151 333.792 834.922 335.037 833.808 336.577C832.08 339.13 833.705 339.041 834.807 339.823C836.305 340.631 835.793 341.992 834.756 343.057C832.668 345.431 828.288 349.164 826.29 352.038C824.331 355.104 832.054 351.268 833.309 350.691C837.1 348.83 841.147 346.162 844.886 343.711C866.21 329.443 892.476 313.405 906.474 291.13C909.445 286.203 912.301 280.429 913.223 274.886C913.261 274.411 913.326 273.783 913.108 273.372C912.532 271.768 908.228 277.952 906.64 279.736C902.299 284.919 897.022 290.296 893.897 295.672C892.719 297.417 891.797 299.534 891.067 301.279C890.222 301.124 890.132 299.329 890.145 298.264C890.362 293.889 893.603 289.693 896.6 286.536C907.024 276.657 909.777 269.959 905.436 255.679C901.748 243.04 903.49 228.913 898.239 216.056Z" fill="var(--fill-0, #99D1FF)" fill-opacity="0.3"/>
<path d="M20.6392 223.6C14.223 218.096 4.9263 233.044 2.19851 241.885C-2.37338 255.613 1.00687 270.189 4.88729 283.674C10.2277 300.88 14.7999 320.127 30.7955 329.673L30.988 329.775V329.801C34.8434 332.508 62.1586 341.708 59.0086 331.508C55.3714 323.399 46.7269 313.903 38.0567 309.13C31.8328 305.73 24.815 307.719 19.7437 301.74C14.1471 295.607 10.9327 285.175 9.70327 276.899C9.01176 271.793 9.22878 269.021 9.89472 269.855C12.392 275.039 13.6471 282.352 16.8102 287.177C24.5199 297.518 22.0351 276.155 21.5869 268.046C21.1002 261.528 21.1902 255.01 21.7921 248.556C22.0483 240.986 25.1216 229.733 20.6392 223.6Z" fill="var(--fill-0, #99D1FF)" fill-opacity="0.3"/>
<path d="M358.665 318.357C349.584 319.999 302.636 292.503 299.818 293.991C299.562 294.121 297.898 298.969 299.754 299.739C318.657 309.208 337.073 319.833 358.665 322.181V318.357Z" fill="var(--fill-0, #99D1FF)" fill-opacity="0.3"/>
<path fill-rule="evenodd" clip-rule="evenodd" d="M561.063 162.641C524.358 155.097 460.44 148.373 425.068 152.248C422.109 152.595 409.431 154.546 412.133 157.073L412.184 157.112V157.124C414.656 158.869 424.389 159.267 423.429 160.846C419.395 163.219 412.338 164.065 407.306 165.515C373.227 173.958 333.064 183.184 315.634 216.685C301.636 245.811 326.802 271.024 353.197 280.685C353.965 280.98 354.746 281.276 355.527 281.545C361.137 283.867 380.577 287.832 376.223 283.264C370.409 279.248 363.058 277.503 354.465 273.243C330.491 262.042 311.203 240.909 324.676 215.928C364.953 149.31 511.104 152.954 576.585 180.027C593.567 186.828 613.955 200.685 620.256 218.404C624.06 228.874 622.753 241.321 616.67 250.803C588.162 295.287 496.273 304.448 446.903 304.41C445.212 304.551 432.074 304.525 433.405 305.975C434.801 306.758 444.65 308.362 445.124 309.093C445.213 309.157 445.136 309.311 444.983 309.375C443.009 310.517 420.766 310.068 423.301 312.66C424.172 313.301 427.053 313.956 431.228 314.405C497.285 318.909 567.761 315.303 621.959 274.821C636.764 263.389 653.604 245.991 652.349 226.963C651.568 201.468 615.121 179.898 586.088 169.89C577.328 166.721 569.72 164.527 561.063 162.641ZM635.947 213.345C637.299 214.397 636.888 213.286 634.998 210.517C630.707 204.259 625.558 198.681 619.815 193.752C625.563 198.684 630.716 204.263 635.01 210.526C636.908 213.296 637.32 214.418 635.947 213.345ZM625.677 202.943C627.454 204.748 629.412 206.826 631.238 208.729C629.412 206.828 627.453 204.753 625.677 202.943ZM570.246 169.03C573.414 171.606 580.459 174.003 584.693 176.169C595.219 180.969 605.442 186.351 614.571 193.21C605.445 186.355 595.226 180.977 584.704 176.178C580.478 174.023 573.371 171.584 570.246 169.03Z" fill="var(--fill-0, #99D1FF)" fill-opacity="0.3"/>
<path d="M371.672 163.063C379.061 160.651 405.276 151.22 387.821 152.465C370.443 154.736 349.823 162.241 333.341 169.824C291.309 188.801 253.12 222.932 287.519 263.58L287.697 263.798V263.81C303.757 282.838 331.663 296.939 355.227 304.253C359.876 305.434 364.757 306.152 368.432 306.088C371.98 306.165 377.063 304.959 373.529 301.328C368.842 297.607 362.758 295.862 354.549 292.526C253.824 254.765 283.459 192.985 371.672 163.063Z" fill="var(--fill-0, #99D1FF)" fill-opacity="0.3"/>
<path d="M615.568 228.192C610.189 174.52 488.23 161.586 433.34 166.86C430.394 167.206 419.266 168.759 420.957 170.966L420.995 171.004H420.982C423.377 172.659 426.323 174.045 428.436 175.957C430.331 177.458 430.498 179.023 434.75 179.01C444.086 178.586 460.209 175.79 471.057 175.957C511.321 175.906 578.953 183.386 590.185 219.684C601.494 263.321 543.902 274.78 510.643 281.132C484.914 285.661 463.54 286.174 440.231 287.393C435.877 287.996 433.559 288.548 433.84 291.178C437.465 299.723 461.503 296.515 470.685 296.733C512.692 294.578 620.088 287.406 615.568 228.192Z" fill="var(--fill-0, #99D1FF)" fill-opacity="0.3"/>
<path d="M61.9962 208.044C61.4327 201.783 58.5002 187.631 49.6638 192.044C46.206 193.648 43.4399 204.284 42.108 210.302C37.2158 230.844 38.2275 273.482 56.8101 285.402L56.9377 285.453L56.9505 285.465C67.055 288.968 63.8662 267.631 63.2002 261.485C61.9708 250.438 59.4609 239.416 59.986 228.33C60.2293 220.478 62.5469 214.152 61.9962 208.044Z" fill="var(--fill-0, #99D1FF)" fill-opacity="0.3"/>
<path d="M563.908 222.185C555.225 188.388 477.231 180.061 445.291 185.553C443.05 185.976 438.364 187.131 438.708 189.068V189.12L438.721 189.133C440.488 192.456 444.151 193.11 447.776 194.393C454.409 197.19 460.826 197.114 468.638 197.345C477.462 197.64 485.966 196.908 494.828 198.037C549.654 205.672 546.9 241.534 496.8 250.849C492.92 251.645 493.65 252.364 497.211 253.018C499.554 253.467 503.434 253.723 505.445 254.352C509.837 255.571 495.891 256.443 494.636 256.597C479.831 257.38 467.818 258.907 456.139 264.887C453.847 266.298 455.217 266.939 457.855 267.336C466.321 268.337 478.807 265.874 487.285 266.349C496.813 266.99 490.384 270.454 486.068 271.442C479.575 274.072 451.145 274.175 449.274 278.307C449.876 279.012 451.183 279.013 452.182 279.128C455.589 279.346 462.607 278.91 470.06 278.256C497.287 275.51 533.095 269.877 550.448 260.446C557.043 256.225 557.94 251.35 560.27 245.204C562.563 237.89 565.56 229.999 563.908 222.185Z" fill="var(--fill-0, #99D1FF)" fill-opacity="0.3"/>
<path d="M396.638 181.869C392.232 181.381 383.856 185.115 378.375 187.81C369.18 192.506 360.049 198.356 353.21 206.042C341.018 219.027 340.16 239.839 352.851 252.786C358.871 259.637 369.871 264.975 376.723 269.697L376.825 269.773L376.838 269.812C379.553 271.775 379.822 273.212 381.499 274.739C385.726 277.87 392.808 277.779 398.264 277.754C400.146 277.638 401.747 277.369 403.092 276.92C408.56 275.073 409.265 271.146 413.401 269.555C418.178 267.322 432.433 268.759 431.959 261.484C430.601 251.913 414.413 249.192 411.02 234.129C408.945 225.314 415.015 217.424 418.741 210.187C420.662 206.171 421.738 203.348 418.076 201.09C405.307 193.789 394.473 195.187 383.42 205.375C370.422 216.307 366.708 228.869 378.144 242.854C383.087 249.013 390.144 254.748 393.115 258.341C399.288 265.731 386.84 261.048 381.883 258.225C378.656 256.519 375.25 254.389 372.15 252.015C351.404 237.067 349.56 213.318 371.344 197.998C374.328 194.931 399.031 183.922 396.638 181.869Z" fill="var(--fill-0, #99D1FF)" fill-opacity="0.3"/>
<path d="M394.054 97.259C388.483 94.6801 381.504 95.1288 373.039 95.7704C363.369 96.6172 351.702 97.7601 343.838 101.443L343.673 101.506V101.494C332.992 106.96 317.649 108.101 305.572 110.052C267.152 116.89 230.397 130.902 197.381 151.726C181.565 161.58 196.907 161.863 184.754 175.604C179.452 181.712 173.342 186.266 167.746 190.039C165.838 191.463 164.595 191.784 164.672 192.785C166.234 194.363 169.321 194.748 170.052 197.262C171.255 200.47 169.039 205.911 169.026 208.657C169.219 211.685 176.967 202.228 178.708 200.676C216.578 161.144 269.855 139.999 322.029 126.616C337.09 122.998 352.714 120.316 367.544 115.633C373.909 113.696 378.852 111.168 384.474 109.384C388.355 108.063 394.874 106.678 396.719 104.253C398.55 101.712 397.256 98.9142 394.054 97.259Z" fill="var(--fill-0, #99D1FF)" fill-opacity="0.3"/>
<path d="M143.002 172.226C142.9 162.834 127.468 166.914 121.923 167.543L121.781 167.568H121.794C118.708 168.082 116.492 169.622 114.738 172.188C113.252 174.266 111.28 177.563 109.896 180.899C107.745 186.198 107.771 191.061 112.023 194.346C122.857 201.749 133.269 189.843 138.622 180.797C140.594 177.281 142.477 175.241 143.002 172.226Z" fill="var(--fill-0, #99D1FF)" fill-opacity="0.3"/>
<path d="M389.403 125.99C385.177 123.911 370.18 128.132 364.059 129.826L363.828 129.89H363.815C327.93 141.04 288.293 151.793 256.917 173.592C251.692 177.352 245.813 181.548 242.535 187.026C239.654 193.429 247.85 190.58 252.575 187.821C258.005 184.78 263.961 180.059 269.058 175.992C298.731 151.703 336.37 142.092 373.01 132.585C377.774 131.161 386.816 129.261 389.492 126.4C389.544 126.246 389.518 126.105 389.403 125.99Z" fill="var(--fill-0, #99D1FF)" fill-opacity="0.3"/>
<path d="M873.55 174.801C901.75 174.364 862.652 150.345 847.988 152.937C834.054 155.4 853.175 166.024 857.721 168.975C859.04 169.834 858.746 173.387 858.95 173.517H858.938C859.552 173.914 872.552 174.813 873.55 174.801Z" fill="var(--fill-0, #99D1FF)" fill-opacity="0.3"/>
<path d="M500.193 104.052C484.71 103.834 469.315 104.54 454.05 107.106C423.929 112.636 450.349 113.175 462.771 112.777C510.412 112.854 559.475 117.884 605.72 129.65C613.737 131.754 621.601 134.525 629.4 137.386C637.468 140.145 646.114 142.891 653.298 146.086C669.691 152.514 687.018 165.845 702.514 172.453C705.37 173.338 693.793 159.957 692.909 157.185C689.489 151.206 688.017 145.085 683.023 139.799C680.039 136.578 676.708 134.038 672.879 131.741C664.58 126.929 653.387 123.016 643.462 122.336C632.884 121.694 623.356 122.669 613.008 122.015C603.262 121.22 595.59 119.898 587.906 116.55L587.842 116.524V116.511C577.187 113.406 561.96 113.406 549.281 111.263C532.709 108.658 517.354 104.232 500.193 104.052Z" fill="var(--fill-0, #99D1FF)" fill-opacity="0.3"/>
<path d="M795.361 121.23C795.015 121.204 788.752 121.924 788.56 122.206V122.219C786.962 124.67 817.375 143.287 819.258 143.505C827.301 144.467 829.362 136.73 818.425 131.38C815.441 129.917 796.696 121.36 795.361 121.23Z" fill="var(--fill-0, #99D1FF)" fill-opacity="0.3"/>
<path d="M512.066 68.7755C460.595 62.822 406.845 71.1746 355.361 77.9365C346.499 79.2452 336.344 81.3247 328.724 83.0183L328.532 83.0567L328.545 83.0695C300.05 89.6645 267.687 98.2867 240.652 107.871C234.8 109.822 225.386 114.582 223.939 116.943C223.311 117.713 223.106 118.367 223.337 118.854C223.977 120.33 228.754 120.151 236.093 118.175C247.273 115.095 258.927 110.104 269.979 106.395C287.588 100.455 303.802 99.4154 322.115 94.1933C334.346 90.9471 346.692 87.3035 359.268 85.9434C372.92 84.4165 379.413 84.057 390.299 83.1973C401.479 81.9014 412.096 81.2212 423.788 80.7592C435.327 80.5796 446.892 79.2719 458.085 80.4651C464.066 80.9271 472.98 81.5684 479.537 81.7609C493.522 81.1835 506.764 80.9653 520.762 82.7231C548.962 85.6486 577.265 88.3043 605.542 89.998C612.727 90.2418 618.132 89.9463 619.592 88.8557C620.667 87.9961 619.706 87.1489 618.733 86.392C612.15 81.7345 581.377 72.9593 575.178 74.5756C574.678 74.922 574.742 75.4609 574.896 76.1281C577.329 82.1839 565.994 80.2342 561.653 79.8236C545.03 77.4114 528.599 70.9953 512.066 68.7755Z" fill="var(--fill-0, #99D1FF)" fill-opacity="0.3"/>
<path d="M222.426 84.2534C232.646 80.2758 254.098 67.2402 227.511 68.4462H227.255V68.459C210.581 69.9602 192.036 76.9652 176.783 84.9332C170.674 88.3205 165.565 91.092 159.494 93.7223C151.234 97.5073 157.701 101.422 163.029 101.909C171.878 102.564 181.561 98.5215 190.013 95.7885C201.808 91.8367 211.336 89.2444 222.426 84.2534Z" fill="var(--fill-0, #99D1FF)" fill-opacity="0.3"/>
<path d="M631.008 60.3359C619.598 58.7065 604.397 58.2059 593.857 60.0919L593.6 60.1303H593.588C589.541 60.7333 569.664 65.8015 582.407 67.6492C592.268 69.2402 603.5 69.856 613.579 71.4214C623.85 72.6659 630.778 74.4883 638.82 72.4998C643.905 71.345 647.491 67.0974 641.561 63.5945C639.23 62.1576 635.58 60.9903 631.008 60.3359Z" fill="var(--fill-0, #99D1FF)" fill-opacity="0.3"/>
<path d="M322.934 48.9052C321.795 41.3222 295.399 49.3024 289.034 50.3289C278.481 53.2286 258.632 55.6158 253.458 63.9686L253.42 64.0453C252.574 65.7517 254.405 66.8034 257.364 66.9959C260.757 67.1756 264.203 66.1752 267.827 65.6107C271.413 64.9692 276.113 64.6479 281.517 63.8268C292.044 61.5301 319.989 58.3486 322.934 48.9052Z" fill="var(--fill-0, #99D1FF)" fill-opacity="0.3"/>
<path d="M569.152 5.22092C523.649 -0.787889 475.734 -0.118959 429.449 0.191282C418.089 0.452537 406.468 0.877801 395.125 1.82485C387.27 2.6576 381.37 2.8699 374.704 5.1069C371.233 6.54375 373.71 7.93119 378.811 10.0374C381.728 11.2457 385.216 12.5853 387.465 14.2508L387.596 14.3489C396.608 21.0762 377.132 31.7552 371.624 36.621C347.389 53.6841 376.155 51.1361 392.958 49.8462C401.514 49.1604 410.673 48.3116 418.871 47.5604C462.402 42.6946 509.519 45.569 553.327 44.2464C561.981 44.0342 573.912 43.805 580.529 41.7476C585.63 40.4903 590.389 37.4698 595.295 36.2779C597.381 35.8534 600.282 36.2772 601.798 36.4079C602.319 36.4079 602.71 36.4569 602.71 36.0488C600.51 32.6198 588.629 25.778 583.609 22.9206C578.035 19.6549 573.293 16.1279 574.466 9.98842C574.564 7.8986 573.601 6.3475 569.152 5.22092Z" fill="var(--fill-0, #99D1FF)" fill-opacity="0.3"/>
</g>
</svg>
