<svg preserveAspectRatio="none" width="100%" height="100%" overflow="visible" style="display: block;" viewBox="0 0 980.215 1119.55" fill="none" xmlns="http://www.w3.org/2000/svg">
<g id="ripple" opacity="0.5">
<path fill-rule="evenodd" clip-rule="evenodd" d="M484.657 769.703C463.306 765.08 445.816 777.765 425.232 782.24C409.733 785.609 339.656 789.491 333.68 799.586C324.518 815.074 362.848 824.536 370.503 830.21C386.607 842.166 389.956 872.952 373.691 885.461C360.506 895.624 292.242 911.085 288.26 925.211V925.184C285.314 935.616 307.565 941.777 314.266 944.432C327.854 949.797 341.967 953.692 356.188 956.981C363.52 958.679 370.879 960.202 378.251 961.685C381.588 962.359 396.978 963.262 398.687 965.931C400.073 968.114 395.755 979.087 395.486 982.295C395.056 987.295 395.378 992.363 396.683 997.215C399.508 1007.69 406.72 1016.06 415.586 1022.03C427.156 1029.82 457.588 1035.46 451.306 1054.77C444.592 1075.45 363.036 1070.86 361.018 1090.71C360.036 1100.44 377.028 1108.04 381.05 1119.36H730.496C731.72 1119.36 734.612 1119.89 735.608 1119.2C736.765 1118.39 737.707 1115.36 738.286 1114.08C742.524 1104.66 743.546 1093.41 738.191 1084.22C735.393 1079.41 731.115 1075.66 726.271 1072.99C722.195 1070.76 717.809 1069.15 713.221 1068.26C711.58 1067.95 709.79 1067.79 708.284 1068.53C707.732 1068.8 707.893 1069.22 708.377 1069.48C708.929 1069.77 709.576 1069.76 710.127 1070C710.235 1070.06 710.342 1070.18 710.315 1070.31C710.301 1070.38 710.261 1070.43 710.221 1070.49C707.423 1074.27 702.364 1070.14 699.404 1068.77C696.741 1067.55 694.144 1065.85 691.359 1064.88C685.951 1063.01 670.318 1065.14 670.143 1053.06C670.021 1045.24 679.372 1039.14 684.942 1035.23C692.408 1029.97 699.647 1024.52 707.477 1019.83C711.984 1017.14 716.477 1013.93 718.751 1009.2C720.997 1004.51 720.298 999.844 718.428 995.221C717.674 993.361 716.974 991.676 716.921 989.64C716.732 982.645 716.154 976.512 713.047 970.257C709.939 964.003 705.405 958.544 700.373 953.746C690.256 944.082 678.054 936.803 665.77 930.279C654.564 924.322 639.226 920.843 629.889 915.061C603.063 898.415 647.526 894.533 655.734 887.941C660.994 883.723 669.686 863.14 674.623 855.7C680.691 846.575 702.189 823.431 698.638 813.848C686.61 781.431 536.751 787.374 502.833 778.425C495.192 776.403 489.756 770.808 484.657 769.703ZM437.313 926.639C439.694 926.464 442.196 927.435 443.367 929.524C444.43 931.411 450.7 933.029 450.727 937.032C450.781 946.103 420.874 947.316 416.165 941.318V941.331C408.9 932.098 426.053 927.475 437.313 926.639ZM466.508 819.562C482.693 816.435 507.501 815.546 524.009 816.463C539.265 817.312 623.202 828.715 579.922 853.732C553.714 868.868 449.691 874.665 422.487 861.617C413.03 857.088 408.899 846.129 417.496 838.459C419.561 836.624 461.409 820.546 466.508 819.562Z" fill="var(--fill-0, #99D1FF)" fill-opacity="0.5"/>
<path d="M402.616 1037.69C382.328 1035.52 381.978 1055.72 402.925 1055.99C416.5 1056.17 421.384 1039.7 402.616 1037.69Z" fill="var(--fill-0, #99D1FF)" fill-opacity="0.5"/>
<path d="M794.385 1047.68C802.887 1034.47 768.136 1021.22 757.091 1035.25C744.619 1051.1 786.998 1059.14 794.385 1047.68Z" fill="var(--fill-0, #99D1FF)" fill-opacity="0.5"/>
<path d="M338.428 711.509C323.157 710.228 221.317 704.244 216.82 711.509L216.834 711.495C223.48 716.24 208.048 719.354 213.039 728.749C216.874 735.96 258.433 741.755 267.259 742.416C289.875 744.114 399.008 743.468 413.997 734.639C422.634 729.544 424.396 723.222 413.378 719.906C400.569 716.052 354.707 712.87 338.428 711.509Z" fill="var(--fill-0, #99D1FF)" fill-opacity="0.5"/>
<path d="M512.141 642.454C483.282 642.185 432.871 643.64 405.749 646.915C400.475 647.239 390.466 649.895 388.852 654.45L388.825 654.545L388.838 654.518C388.529 656.338 390.964 656.715 392.564 656.891C412.301 658.751 467.259 653.507 491.476 657.201C503.14 660.233 520.966 667.781 530.142 673.226C547.537 683.646 502.373 690.804 494.462 692.367C458.111 697.597 420.669 694.874 383.645 696.667C378.277 697.098 373.097 698.136 367.877 698.096C363.249 698.217 357.598 697.341 353.428 698.042C350.804 698.554 349.298 699.592 349.742 700.603C350.159 701.695 352.608 702.773 355.984 703.528C361.958 704.782 369.195 705.482 375.545 706.088C391.461 707.652 404.996 707.894 420.144 706.749C430.14 705.9 439.908 705.981 449.729 707.342C458.433 708.083 466.775 707.032 475.708 708.11C507.055 710.671 540.811 724.366 566.104 713.785C573.584 710.065 579.167 702.139 585.544 696.801C589.917 692.96 594.02 690.951 599.186 689.32C613.77 684.67 644.606 676.893 645.413 668.59C645.143 662.875 635.417 660.004 630.304 658.468C611.631 653.184 590.279 655.367 570.597 653.318C570.193 653.184 570.126 653.035 570.503 652.833C576.853 650.568 581.669 649.733 571 647.778C553.295 645.366 530.518 642.522 512.141 642.454Z" fill="var(--fill-0, #99D1FF)" fill-opacity="0.5"/>
<path d="M203.092 700.592C205.957 685.603 168.435 687.139 163.054 693.595C149.506 709.851 200.803 712.534 203.092 700.592Z" fill="var(--fill-0, #99D1FF)" fill-opacity="0.5"/>
<path d="M770.254 653.754C784.367 638.145 746.67 642.472 738.974 644.75L738.651 644.818C729.557 647.163 710.601 650.573 707.951 660.278C706.861 670.764 726.758 671.102 734.09 671.021C739.203 670.859 744.733 670.427 748.042 669.025C748.984 668.513 748.729 667.853 749.212 667.099C755.239 662.071 764.684 659.334 770.254 653.754Z" fill="var(--fill-0, #99D1FF)" fill-opacity="0.5"/>
<path d="M679.615 626.81C669.969 625.934 635.272 630.787 651.632 638.295C663.795 643.147 706.563 644.629 717.649 639.763L717.743 639.71C719.842 638.146 717.622 636.38 716.048 635.248C707.128 629.33 691.266 627.134 679.615 626.81Z" fill="var(--fill-0, #99D1FF)" fill-opacity="0.5"/>
<path d="M756.177 537.723C750.311 536.834 743.315 537.535 737.315 538.667C731.893 539.664 726.499 541.227 721.09 542.36C691.963 547.886 656.579 547.307 627.318 554.828C616.313 558.009 612.37 563.522 603.437 564.924C592.957 566.73 581.401 563.387 570.342 562.564C561.382 561.782 553.241 562.349 544.026 563.374C533.626 564.506 522.89 566.056 512.45 567.31C477.699 571.609 444.456 570.922 409.799 571.232C405.669 571.34 389.524 571.367 389.672 574.157C390.6 574.979 392.027 575.127 393.345 575.383C398.135 576.326 409.557 576.165 417.481 575.465C433.006 574.319 448.775 572.93 464.26 574.628C467.232 574.925 465.899 580.052 460.088 580.726C407.928 581.602 367.465 584.107 315.507 577.341C311.996 576.815 306.849 575.607 306.257 575.283C305.207 574.771 307.026 571.286 313.51 571.65C324.139 572.216 336.947 573.577 346.983 573.388C353.791 573.321 358.096 572.755 357.154 571.946C353.562 570.019 340.889 569.385 334.284 568.724C320.991 567.781 307.08 566.096 293.76 565.652C284.41 565.652 280.253 567.7 274.213 569.614C267.082 571.838 259.589 573.901 252.916 577.149C252.727 577.27 252.727 577.257 252.404 577.486C251.113 578.416 250.656 579.467 251.153 580.532C251.463 581.152 252.001 581.745 252.619 582.203C257.019 585.506 266.127 586.854 272.814 587.326C333.18 592.057 395.256 590.439 456.43 593.525C470.26 594.186 483.552 595.467 497.328 597.503C512.665 599.403 529.819 603.555 545.237 601.816C558.892 600.239 571.498 592.071 584.777 587.69C599.764 582.271 616.367 581.085 631.852 578.2C646.045 575.559 657.279 568.738 671.701 566.109C675.724 565.382 680.486 564.802 684.28 564.559C687.078 564.384 688.41 564.492 688.263 564.775L688.182 564.789C688.532 565.463 674.93 567.7 681.146 568.334C697.384 569.196 714.847 567.161 729.552 560.206C738.902 556.189 751.468 553.318 759.931 548.762C767.653 544.462 764.948 538.842 756.177 537.723Z" fill="var(--fill-0, #99D1FF)" fill-opacity="0.5"/>
<path d="M196.896 559.12C190.263 558.068 178.008 554.457 172.142 557.651L172.088 557.705C168.59 564.134 222.89 573.772 229.146 572.869C233.504 572.734 234.083 571.318 232.119 569.62C230.087 567.531 222.688 565.051 218.396 563.959C211.225 561.991 204.067 560.576 196.896 559.12Z" fill="var(--fill-0, #99D1FF)" fill-opacity="0.5"/>
<path d="M450.983 536.793C438.834 535.364 391.1 536.429 381.817 542.13C363.804 553.196 397.489 558.211 404.513 559.128C415.263 560.529 472.199 563.063 472.24 547.858C469.589 540.822 457.696 537.575 450.996 536.793H450.983Z" fill="var(--fill-0, #99D1FF)" fill-opacity="0.5"/>
<path d="M975.968 359.346C978.833 354.21 983.206 339.585 977.233 341.068L977.152 341.095V341.121C969.955 345.098 963.954 356.757 958.129 363.443C951.671 371.732 943.895 378.647 935.742 384.214C926.297 390.832 916.449 396.426 906.722 402.599C899.564 407.101 892.448 412.25 885.25 416.766C863.912 430.582 838.861 437.524 816.084 447.188C786.217 460.182 754.412 478.46 722.541 485.59C711.791 488.192 701.216 489.66 690.346 489.121C677.363 488.285 663.331 487.247 650.497 486.816C640.07 486.412 632.482 485.185 623.253 486.816C619.324 487.598 614.279 489.633 609.543 491.305C599.722 495.052 588.152 495.82 576.757 496.265C563.061 497.02 550.536 499.204 537.109 502.398C522.714 505.849 508.412 508.45 493.653 509.34C442.973 512.238 387.262 506.388 336.232 501.711C322.389 500.215 307.899 498.179 294.042 497.37C283.817 496.804 282.835 498.543 275.704 497.505C271.669 496.912 267.498 496.063 263.166 495.187C193.018 479.255 119.184 459.373 55.5881 424.476C44.5832 418.262 34.4661 411.051 24.2684 402.991C19.7749 399.513 14.3939 395.28 9.96771 392.719C4.19609 389.484 0.401863 388.137 0.200058 391.884C0.711667 399.918 17.2194 416.065 26.3678 422.575C37.3325 430.851 49.0911 438.332 61.1993 445.638C78.7696 455.801 97.6581 463.511 116.291 470.884C142.284 481.115 167.51 493.044 194.659 500.12C243.267 512.75 297.822 523.075 348.165 524.167C403.366 523.425 459.562 521.282 514.884 521.349C554.679 521.403 595.094 523.358 634.54 517.36C656.443 513.842 674.054 506.537 696.387 503.342C713.514 501.253 730.237 498.718 746.691 493.637C760.009 489.89 774.849 483.541 787.239 477.355C797.639 472.057 806.048 467.029 817.376 462.392C831.946 456.637 847.176 451.205 861.369 444.277C896.927 427.037 957.361 393.987 975.968 359.346Z" fill="var(--fill-0, #99D1FF)" fill-opacity="0.5"/>
<path d="M509.148 488.44C500 488.076 488.766 488.589 481.784 493.037L481.623 493.144V493.158C474.964 497.525 480.64 502.863 490.34 501.772C498.251 500.666 527.567 494.141 527.702 490.906C527.634 490.731 527.445 490.556 527.15 490.395C521.553 488.589 515.404 488.885 509.148 488.44Z" fill="var(--fill-0, #99D1FF)" fill-opacity="0.5"/>
<path d="M179.025 397.288C169.338 397.018 197.469 408.731 198.841 409.378C201.021 410.416 200.886 410.739 197.2 409.917C193.366 409.108 186.316 407.626 183.437 407.694C183.06 407.694 182.751 407.72 182.508 407.774C182.038 407.869 181.809 408.058 181.782 408.354C181.595 410.053 189.17 416.212 197.389 421.428C203.618 425.377 209.336 429.058 216.063 432.144C244.732 443.547 287.299 452.592 318.135 460.019C342.002 465.37 366.381 469.629 391.135 471.597C400.741 472.352 408.988 470.451 417.692 471.745H417.787L417.8 471.718C428.751 473.43 438.034 472.797 450.116 472.999C465.412 473.848 480.696 476.193 495.871 476.261C541.304 476.153 595.052 474.589 636.005 466.057C643.579 463.995 650.132 462.35 655.298 457.592C659.213 453.724 660.195 448.333 661.54 445.96C662.011 445.111 662.657 444.436 663.598 444.18C665.065 443.722 667.823 443.939 672.29 443.939C672.936 443.939 673.609 443.939 674.308 443.925C679.945 443.817 685.501 443.291 691.071 441.701C704.404 437.657 716.903 429.03 730.37 424.757C745.949 419.15 770.704 415.268 782.395 405.483C783.659 404.391 785.058 402.733 784.023 401.264C783.538 400.711 782.623 400.321 781.278 400.119C776.449 399.525 770.448 400.846 765.335 402.005C743.258 407.275 711.547 418.382 687.546 424.569C678.263 426.928 668.429 430.459 660.545 432.495C644.131 437.131 625.754 437.778 607.887 439.773C521.098 454.411 431.859 458.279 345.191 444.787C306.808 438.668 269.54 428.45 233.054 415.538C216.398 410.294 195.102 399.673 179.025 397.288Z" fill="var(--fill-0, #99D1FF)" fill-opacity="0.5"/>
<path d="M897.992 190.14C896.579 185.368 895.732 180.421 889.907 182.699C883.49 186.311 891.387 205.829 892.53 212.865C894.037 218.782 895.194 224.929 895.76 230.994C896.567 238.448 897.239 248.437 899.755 254.246C900.656 256.712 901.8 258.667 902.836 260.23C904.315 261.848 904.303 263.533 903.32 265.65C900.374 272.632 896.256 277.47 890.741 283.873C868.569 314.012 837.101 338.57 802.848 353.343C756.635 371.567 708.174 391.152 658.947 401.612C502.589 437.668 276.581 434.366 154.26 317.651C145.946 309.052 136.179 301.544 132.533 290.787C130.932 285.261 130.07 279.142 128.644 273.359C126.048 265.285 118.177 227.854 110.172 229.754C105.638 233.636 107.065 248.679 108.625 255.648C111.504 272.51 116.307 288.509 126.33 302.325C174.266 368.399 284.653 409.672 363.102 421.52C378.076 423.326 397.314 423.932 411.427 425.846C412.045 425.941 412.462 426.022 412.651 426.089C412.973 426.265 412.516 426.278 412.22 426.359C410.256 426.642 403.314 427.721 401.054 428.867C395.848 432.155 418.881 432.613 423.536 432.397H423.777L423.79 432.424C433.544 432.155 442.652 432.425 452.393 433.207C513.688 437.951 587.939 436.752 647.27 426.278C656.58 424.405 664.692 422.235 674.177 419.283C732.633 399.631 822.8 364.207 870.251 327.41C880.718 318.365 889.247 305.628 896.714 293.686C904.248 281.73 910.625 272.779 915.024 260.554C921.549 242.021 915.429 220.859 905.298 204.509C901.746 198.241 899.741 195.343 897.992 190.14Z" fill="var(--fill-0, #99D1FF)" fill-opacity="0.5"/>
<path d="M811.899 161.995C806.719 157.641 797.154 149.474 790.44 151.307C785.382 155 798.457 168.586 801.203 172.509C813.553 187.255 823.146 205.398 825.15 223.527C829.832 257.184 811.562 295.006 785.583 316.586C756.281 341.144 718.88 353.626 683.793 367.2C669.828 372.295 655.769 377.08 641.817 382.189C628.512 387.122 615.031 391.34 600.837 392.634C528.981 399.562 456.036 400.101 384.583 388.671C380.117 388.105 348.891 382.215 359.68 386.11C365.358 387.97 372.811 389.615 378.192 391.246C379.08 391.569 380.211 391.826 380.924 392.203C381.059 392.257 381.34 392.405 381.165 392.5C374.816 392.176 367.322 390.1 360.825 388.671C331.765 381.77 303.256 371.62 275.622 360.069C255.32 352.008 234.373 344.325 215.444 333.097C206.578 328.11 198.047 321.385 189.047 316.829C180.41 312.502 179.415 316.707 184.648 323.447C192.101 333.044 203.43 340.929 214.058 347.25C306.391 399.63 414.989 413.634 519.874 408.809C543.458 407.501 567.311 408.661 590.788 405.561C611.574 401.747 633.543 400.25 653.656 395.385C674.711 389.602 695.242 380.53 715.275 371.58C752.541 354.92 786.862 338.476 813.715 306.692C829.066 289.183 842.909 265.433 844.16 242.411C844.107 242.25 844.013 242.29 843.919 242.411C843.663 242.721 843.515 243.139 843.3 243.543L843.273 243.61V243.557C842.654 244.77 841.806 247.183 841.55 243.84C841.026 239.513 841.618 232.424 841.336 227.221C841.201 219.524 840.662 211.814 838.967 204.32C835.361 187.606 824.599 173.533 811.899 161.995Z" fill="var(--fill-0, #99D1FF)" fill-opacity="0.5"/>
<path d="M169.141 398.77C173.701 389.914 133.127 368.928 127.153 373.996L127.071 374.063V374.076C124.959 377.014 130.044 381.516 132.009 383.713C138.09 389.765 147.817 396.788 156.992 399.187C160.84 400.117 166.235 401.479 169.141 398.77Z" fill="var(--fill-0, #99D1FF)" fill-opacity="0.5"/>
<path d="M758.987 199.131C758.018 199.293 758.435 202.164 759.592 206.706C767.153 230.497 763.332 255.487 749.259 276.312C739.505 291.611 725.904 302.408 710.338 311.479C683.377 326.724 638.778 352.913 608.857 352.657H608.695L608.709 352.684C603.3 352.401 599.95 351.969 593.627 352.724C482.352 370.112 342.488 366.392 250.949 293.174C243.011 287.351 235.531 290.007 241.531 299.105C243.307 301.598 245.702 303.742 248.19 305.683C328.805 362.2 434.995 369.223 530.772 368.644C546.122 368.671 531.78 371.056 525.646 371.919C453.615 382.069 377.023 369.304 308.261 346.093C260.339 329.851 190.326 296.746 205.098 234.824C207.036 226.427 211.247 218.178 213.601 210.01C217.637 194.751 202.004 205.009 197.457 210.104C171.868 235.902 180.492 282.944 205.65 306.452C280.413 378.753 475.383 392.608 577.026 376.798C585.797 375.099 592.82 371.703 601.255 370.085C606.771 368.98 612.476 368.603 618.18 367.187C630.638 364.06 644.253 360.73 656.106 356.741C683.632 346.227 709.786 329.231 734.554 309.484C744.079 301.505 752.771 293.471 759.632 283.254C770.799 266.472 775.952 244.529 772.144 224.607C770.88 218.11 768.606 211.95 765.269 206.397C762.512 201.761 759.956 198.876 758.987 199.131Z" fill="var(--fill-0, #99D1FF)" fill-opacity="0.5"/>
<path d="M943.611 226.97C942.387 224.004 938.405 213.464 934.961 216.699L934.88 216.793L934.867 216.82C932.943 219.111 932.257 227.414 933.077 230.043C933.225 230.474 933.36 230.974 933.736 231.149C935.095 231.796 937.181 225.527 938.15 226.08C938.567 226.404 938.593 226.863 938.714 227.523C939.104 230.152 939.011 236.594 939.482 242.484C940.154 252.459 941.781 262.595 940.342 272.26C934.368 301.886 902.994 327.146 880.244 348.82C878.388 350.653 877.096 351.961 875.926 353.578C874.11 356.26 875.818 356.166 876.975 356.988C878.549 357.837 878.011 359.267 876.921 360.386C874.728 362.879 870.127 366.801 868.029 369.82C865.97 373.042 874.083 369.012 875.402 368.405C879.384 366.451 883.636 363.647 887.564 361.073C909.964 346.084 937.558 329.235 952.263 305.836C955.384 300.66 958.383 294.594 959.352 288.771C959.392 288.273 959.46 287.612 959.231 287.181C958.626 285.496 954.105 291.992 952.437 293.866C947.876 299.311 942.333 304.959 939.05 310.607C937.813 312.44 936.844 314.664 936.077 316.497C935.19 316.335 935.095 314.449 935.108 313.33C935.337 308.734 938.741 304.326 941.889 301.01C952.841 290.631 955.733 283.596 951.172 268.594C947.298 255.317 949.127 240.476 943.611 226.97Z" fill="var(--fill-0, #99D1FF)" fill-opacity="0.5"/>
<path d="M21.6817 234.894C14.9415 229.113 5.17514 244.816 2.30957 254.103C-2.49327 268.525 1.05773 283.837 5.13417 298.003C10.7443 316.079 15.5474 336.297 32.3511 346.326L32.5533 346.433V346.46C36.6034 349.304 65.2984 358.969 61.9892 348.253C58.1684 339.735 49.0872 329.759 39.9791 324.745C33.4408 321.174 26.0685 323.263 20.741 316.982C14.8617 310.539 11.485 299.58 10.1934 290.886C9.46697 285.522 9.69496 282.61 10.3945 283.487C13.0179 288.932 14.3365 296.615 17.6594 301.683C25.7585 312.547 23.1482 290.104 22.6773 281.586C22.1661 274.739 22.2606 267.891 22.8929 261.111C23.162 253.159 26.3905 241.337 21.6817 234.894Z" fill="var(--fill-0, #99D1FF)" fill-opacity="0.5"/>
<path d="M376.782 334.438C367.243 336.163 317.923 307.278 314.963 308.842C314.693 308.977 312.945 314.071 314.896 314.88C334.753 324.827 354.099 335.988 376.782 338.455V334.438Z" fill="var(--fill-0, #99D1FF)" fill-opacity="0.5"/>
<path fill-rule="evenodd" clip-rule="evenodd" d="M589.404 170.857C550.845 162.931 483.698 155.868 446.539 159.939C443.43 160.303 430.113 162.352 432.951 165.007L433.005 165.048V165.061C435.601 166.894 445.826 167.312 444.817 168.97C440.579 171.464 433.167 172.353 427.88 173.876C392.079 182.745 349.888 192.437 331.577 227.63C316.873 258.228 343.31 284.714 371.038 294.863C371.845 295.173 372.666 295.484 373.486 295.767C379.379 298.206 399.801 302.371 395.227 297.572C389.119 293.354 381.397 291.52 372.37 287.045C347.185 275.278 326.923 253.078 341.076 226.835C383.388 156.852 536.921 160.68 605.71 189.121C623.549 196.265 644.968 210.822 651.587 229.436C655.583 240.435 654.21 253.51 647.82 263.471C617.871 310.203 521.341 319.827 469.478 319.786C467.7 319.934 453.899 319.908 455.298 321.431C456.764 322.253 467.111 323.938 467.608 324.706C467.702 324.774 467.621 324.935 467.46 325.003C465.387 326.202 442.02 325.73 444.683 328.453C445.598 329.127 448.625 329.815 453.011 330.286C522.405 335.018 596.44 331.229 653.376 288.703C668.928 276.693 686.62 258.417 685.301 238.427C684.481 211.645 646.193 188.986 615.693 178.472C606.491 175.143 598.498 172.838 589.404 170.857ZM668.07 224.121C669.49 225.226 669.059 224.06 667.073 221.151C662.566 214.576 657.157 208.717 651.123 203.539C657.162 208.72 662.576 214.581 667.086 221.16C669.08 224.071 669.513 225.248 668.07 224.121ZM657.282 213.194C659.148 215.091 661.206 217.273 663.124 219.273C661.205 217.275 659.147 215.096 657.282 213.194ZM599.051 177.569C602.379 180.274 609.779 182.792 614.227 185.068C625.285 190.11 636.025 195.764 645.615 202.97C636.028 195.768 625.293 190.118 614.239 185.078C609.8 182.813 602.333 180.251 599.051 177.569Z" fill="var(--fill-0, #99D1FF)" fill-opacity="0.5"/>
<path d="M390.446 171.3C398.209 168.766 425.748 158.859 407.411 160.166C389.155 162.552 367.494 170.436 350.179 178.403C306.024 198.338 265.906 234.193 302.042 276.894L302.23 277.123V277.136C319.101 297.125 348.416 311.939 373.171 319.622C378.055 320.862 383.181 321.617 387.043 321.549C390.769 321.63 396.11 320.363 392.397 316.549C387.473 312.64 381.082 310.807 372.458 307.302C266.645 267.634 297.777 202.733 390.446 171.3Z" fill="var(--fill-0, #99D1FF)" fill-opacity="0.5"/>
<path d="M646.662 239.718C641.011 183.335 512.892 169.748 455.23 175.288C452.134 175.652 440.445 177.283 442.221 179.601L442.261 179.642H442.247C444.763 181.381 447.858 182.837 450.078 184.845C452.068 186.422 452.244 188.066 456.71 188.052C466.518 187.607 483.456 184.67 494.851 184.845C537.149 184.791 608.198 192.649 619.997 230.781C631.877 276.623 571.376 288.66 536.437 295.332C509.409 300.09 486.954 300.63 462.469 301.91C457.894 302.544 455.459 303.123 455.755 305.886C459.563 314.863 484.815 311.493 494.461 311.722C538.589 309.457 651.41 301.923 646.662 239.718Z" fill="var(--fill-0, #99D1FF)" fill-opacity="0.5"/>
<path d="M65.1278 218.553C64.5358 211.975 61.4552 197.108 52.1724 201.745C48.54 203.43 45.6342 214.603 44.235 220.925C39.0957 242.505 40.1585 287.296 59.6797 299.818L59.8138 299.872L59.8272 299.885C70.4421 303.565 67.0922 281.15 66.3926 274.693C65.1011 263.088 62.4645 251.509 63.0161 239.864C63.2717 231.614 65.7063 224.969 65.1278 218.553Z" fill="var(--fill-0, #99D1FF)" fill-opacity="0.5"/>
<path d="M592.392 233.408C583.271 197.904 501.337 189.156 467.784 194.925C465.429 195.37 460.507 196.583 460.869 198.618V198.673L460.882 198.687C462.739 202.177 466.587 202.864 470.394 204.212C477.363 207.15 484.104 207.07 492.31 207.313C501.58 207.623 510.513 206.854 519.823 208.041C577.418 216.061 574.526 253.735 521.895 263.52C517.819 264.356 518.586 265.111 522.326 265.798C524.788 266.27 528.864 266.54 530.976 267.2C535.591 268.48 520.939 269.397 519.621 269.559C504.069 270.381 491.449 271.986 479.179 278.267C476.772 279.749 478.211 280.422 480.983 280.84C489.876 281.891 502.993 279.304 511.899 279.803C521.908 280.476 515.155 284.115 510.621 285.153C503.8 287.917 473.934 288.025 471.968 292.365C472.601 293.106 473.974 293.107 475.023 293.228C478.602 293.457 485.974 292.998 493.804 292.311C522.407 289.426 560.023 283.509 578.253 273.602C585.181 269.168 586.123 264.046 588.571 257.59C590.979 249.907 594.128 241.617 592.392 233.408Z" fill="var(--fill-0, #99D1FF)" fill-opacity="0.5"/>
<path d="M416.673 191.055C412.045 190.543 403.246 194.466 397.487 197.296C387.828 202.229 378.236 208.376 371.051 216.45C358.244 230.09 357.342 251.954 370.675 265.554C376.998 272.752 388.555 278.36 395.752 283.32L395.859 283.4L395.873 283.441C398.725 285.503 399.008 287.013 400.77 288.617C405.21 291.906 412.65 291.811 418.381 291.784C420.359 291.662 422.04 291.38 423.453 290.908C429.197 288.967 429.938 284.842 434.283 283.171C439.301 280.826 454.276 282.335 453.778 274.692C452.352 264.637 435.347 261.78 431.781 245.956C429.602 236.696 435.978 228.406 439.893 220.804C441.911 216.585 443.041 213.62 439.194 211.248C425.78 203.578 414.398 205.047 402.788 215.749C389.133 227.233 385.231 240.429 397.245 255.121C402.438 261.591 409.851 267.616 412.972 271.39C419.457 279.154 406.38 274.235 401.173 271.269C397.783 269.476 394.204 267.239 390.949 264.745C369.154 249.042 367.217 224.093 390.102 207.999C393.236 204.778 419.187 193.212 416.673 191.055Z" fill="var(--fill-0, #99D1FF)" fill-opacity="0.5"/>
<path d="M413.959 102.172C408.107 99.4626 400.774 99.934 391.882 100.608C381.724 101.498 369.467 102.698 361.207 106.567L361.032 106.634V106.62C349.812 112.362 333.694 113.562 321.008 115.611C280.647 122.795 242.035 137.514 207.351 159.39C190.736 169.742 206.853 170.039 194.086 184.474C188.516 190.89 182.098 195.675 176.219 199.638C174.215 201.134 172.909 201.472 172.99 202.523C174.631 204.181 177.874 204.585 178.641 207.227C179.906 210.596 177.578 216.312 177.564 219.197C177.766 222.377 185.906 212.443 187.735 210.812C227.518 169.284 283.486 147.071 338.296 133.012C354.117 129.211 370.53 126.394 386.11 121.474C392.796 119.439 397.989 116.783 403.895 114.91C407.972 113.521 414.82 112.066 416.758 109.519C418.682 106.85 417.322 103.911 413.959 102.172Z" fill="var(--fill-0, #99D1FF)" fill-opacity="0.5"/>
<path d="M150.226 180.926C150.118 171.059 133.907 175.345 128.081 176.006L127.933 176.033H127.946C124.704 176.572 122.377 178.19 120.534 180.885C118.973 183.069 116.901 186.532 115.448 190.037C113.187 195.603 113.215 200.712 117.681 204.163C129.063 211.94 140.001 199.432 145.624 189.929C147.696 186.236 149.674 184.093 150.226 180.926Z" fill="var(--fill-0, #99D1FF)" fill-opacity="0.5"/>
<path d="M409.073 132.354C404.633 130.17 388.879 134.604 382.448 136.384L382.206 136.451H382.192C344.495 148.164 302.856 159.46 269.894 182.361C264.405 186.31 258.23 190.718 254.786 196.473C251.759 203.199 260.369 200.207 265.333 197.309C271.038 194.114 277.294 189.155 282.649 184.882C313.821 159.366 353.361 149.27 391.852 139.282C396.856 137.786 406.355 135.791 409.167 132.785C409.22 132.623 409.194 132.475 409.073 132.354Z" fill="var(--fill-0, #99D1FF)" fill-opacity="0.5"/>
<path d="M917.676 183.63C947.3 183.172 906.227 157.939 890.822 160.662C876.184 163.25 896.271 174.41 901.047 177.51C902.432 178.413 902.123 182.145 902.338 182.281H902.325C902.971 182.699 916.626 183.644 917.676 183.63Z" fill="var(--fill-0, #99D1FF)" fill-opacity="0.5"/>
<path d="M525.459 109.308C509.194 109.079 493.022 109.821 476.985 112.516C445.343 118.326 473.097 118.892 486.147 118.474C536.195 118.555 587.736 123.839 636.317 136.199C644.739 138.41 653 141.32 661.193 144.326C669.669 147.224 678.75 150.109 686.298 153.465C703.519 160.218 721.721 174.223 738 181.164C741 182.094 728.838 168.037 727.909 165.125C724.317 158.844 722.771 152.414 717.524 146.86C714.389 143.477 710.891 140.808 706.868 138.395C698.15 133.341 686.391 129.23 675.965 128.515C664.852 127.841 654.843 128.866 643.973 128.178C633.734 127.343 625.675 125.955 617.603 122.437L617.536 122.41V122.397C606.342 119.135 590.346 119.134 577.027 116.883C559.618 114.147 543.487 109.497 525.459 109.308Z" fill="var(--fill-0, #99D1FF)" fill-opacity="0.5"/>
<path d="M835.537 127.353C835.174 127.326 828.594 128.082 828.393 128.379V128.392C826.713 130.968 858.663 150.525 860.641 150.754C869.09 151.765 871.255 143.637 859.766 138.016C856.631 136.479 836.939 127.49 835.537 127.353Z" fill="var(--fill-0, #99D1FF)" fill-opacity="0.5"/>
<path d="M537.932 72.2495C483.861 65.9953 427.396 74.7698 373.312 81.8732C364.002 83.2481 353.333 85.4326 345.328 87.2118L345.127 87.2521L345.141 87.2655C315.206 94.1937 281.209 103.251 252.808 113.32C246.66 115.369 236.771 120.37 235.251 122.85C234.591 123.659 234.376 124.346 234.618 124.858C235.291 126.408 240.309 126.22 248.018 124.144C259.763 120.909 272.006 115.665 283.616 111.77C302.115 105.529 319.148 104.437 338.386 98.9512C351.235 95.541 364.204 91.7134 377.416 90.2846C391.757 88.6806 398.578 88.3029 410.014 87.3999C421.759 86.0385 432.912 85.3238 445.195 84.8386C457.317 84.6499 469.466 83.2761 481.224 84.5296C487.507 85.0149 496.871 85.6887 503.759 85.8909C518.451 85.2843 532.362 85.0551 547.067 86.9017C576.692 89.9749 606.425 92.7648 636.13 94.544C643.677 94.8001 649.355 94.4897 650.889 93.344C652.018 92.441 651.01 91.5511 649.987 90.7559C643.072 85.8631 610.744 76.6447 604.232 78.3426C603.707 78.7065 603.774 79.2727 603.935 79.9736C606.491 86.3352 594.584 84.2871 590.024 83.8557C572.561 81.3217 555.3 74.5814 537.932 72.2495Z" fill="var(--fill-0, #99D1FF)" fill-opacity="0.5"/>
<path d="M233.662 88.5092C244.398 84.3307 266.933 70.6367 239.004 71.9036H238.734V71.9171C221.218 73.4941 201.736 80.8529 185.713 89.2234C179.296 92.7818 173.928 95.6933 167.551 98.4564C158.873 102.433 165.667 106.545 171.264 107.057C180.56 107.744 190.732 103.498 199.611 100.627C212.002 96.4756 222.011 93.7524 233.662 88.5092Z" fill="var(--fill-0, #99D1FF)" fill-opacity="0.5"/>
<path d="M662.882 63.3837C650.895 61.6719 634.926 61.146 623.854 63.1273L623.585 63.1676H623.571C619.32 63.8011 598.44 69.1253 611.826 71.0663C622.185 72.7377 633.985 73.3846 644.573 75.0291C655.362 76.3365 662.64 78.2509 671.089 76.1619C676.43 74.9488 680.197 70.4866 673.968 66.8069C671.52 65.2973 667.685 64.0711 662.882 63.3837Z" fill="var(--fill-0, #99D1FF)" fill-opacity="0.5"/>
<path d="M339.247 51.3756C338.049 43.4095 310.321 51.7928 303.634 52.8711C292.548 55.9173 271.696 58.4251 266.261 67.1998L266.221 67.2804C265.333 69.073 267.256 70.1778 270.364 70.3801C273.929 70.5688 277.549 69.5179 281.356 68.9248C285.123 68.2509 290.06 67.9135 295.737 67.0509C306.796 64.6382 336.152 61.2959 339.247 51.3756Z" fill="var(--fill-0, #99D1FF)" fill-opacity="0.5"/>
<path d="M597.902 5.48464C550.1 -0.827687 499.765 -0.124967 451.141 0.200944C439.208 0.475396 427 0.922141 415.084 1.91703C406.832 2.79184 400.634 3.01487 393.631 5.36486C389.985 6.87429 392.587 8.33182 397.945 10.5445C401.01 11.8138 404.674 13.221 407.037 14.9707L407.175 15.0737C416.641 22.1408 396.182 33.3592 390.396 38.4708C364.937 56.3958 395.155 53.7191 412.807 52.364C421.795 51.6436 431.418 50.7519 440.029 49.9628C485.76 44.8512 535.256 47.8708 581.277 46.4814C590.369 46.2584 602.902 46.0177 609.853 43.8564C615.212 42.5356 620.211 39.3625 625.365 38.1104C627.556 37.6644 630.604 38.1097 632.196 38.2469C632.744 38.2469 633.155 38.2984 633.155 37.8697C630.843 34.2675 618.362 27.0801 613.089 24.0783C607.233 20.6477 602.251 16.9425 603.484 10.493C603.587 8.29758 602.576 6.66813 597.902 5.48464Z" fill="var(--fill-0, #99D1FF)" fill-opacity="0.5"/>
</g>
</svg>
