<svg preserveAspectRatio="none" width="100%" height="100%" overflow="visible" style="display: block;" viewBox="0 0 722.513 263.717" fill="none" xmlns="http://www.w3.org/2000/svg">
<g id="ripple" opacity="0.5">
<path fill-rule="evenodd" clip-rule="evenodd" d="M1.5168 171.844C1.85738 171.666 2.24626 171.601 2.62637 171.66C29.1298 175.774 53.6513 186.812 79.6882 192.533C132.67 204.174 186.501 212.134 240.741 216.588C296.397 221.165 352.6 223.632 408.359 227.436C469.238 231.589 523.979 224.476 583.663 215.123C622.151 209.091 660.423 202.156 698.488 194.241C702.754 193.352 707.354 193.063 711.807 192.421C716.874 191.691 722.495 195.478 722.499 200.598L722.513 217.188C722.515 220.247 720.48 222.861 717.489 223.495C716.078 223.793 714.681 224.125 713.359 224.607C702.47 228.579 691.263 233.254 680.072 236.873L680.073 236.876C638.189 250.406 594.217 247.967 550.582 250.511C442.567 256.808 343.56 272.023 234.43 257.886C224.744 256.63 215.23 251.99 207.317 251.073C199.834 250.202 191.153 251.542 183.543 251C176.124 250.465 155.724 245.403 149.812 241.371C148.787 240.665 148.712 238.139 147.447 236.761C144.756 233.842 129.258 231.984 124.367 230.663C99.8234 224.052 75.8427 215.144 50.99 209.458C35.8476 205.993 17.0492 204.83 2.90799 200.615C1.69907 200.254 0.681159 199.855 0.425531 198.431C-0.831181 191.385 1.15794 181.364 0.531137 173.675C0.469708 172.921 0.84738 172.194 1.5168 171.844ZM241.641 237.089C239.444 237.084 238.041 239.228 240.058 240.101C242.46 241.14 247.057 242.139 249.464 243.168C251.079 243.858 252.937 244.256 254.656 244.535C283.34 249.205 312.334 252.123 341.397 253.257C361.666 254.047 382.308 253.926 401.736 248.345C403.215 247.918 404.782 247.398 405.711 246.212C406.767 244.858 406.464 243.732 405.31 242.797C401.132 239.418 385.818 238.571 383.424 238.446C367.64 237.645 351.824 237.549 336.017 237.459C304.555 237.287 273.101 237.163 241.641 237.089ZM611.444 223.276C607.706 222.523 603.85 222.589 600.033 222.7C576.927 223.34 553.861 225.242 530.979 228.385C519.085 230.021 507.208 232.002 495.705 235.345C493.638 235.949 485.952 239.939 490.78 242.095C497.135 244.925 504.316 245.413 511.314 245.426C523.201 245.444 535.047 244.206 546.83 242.707C563.494 240.585 580.088 237.933 596.576 234.754C599.462 234.198 602.483 233.558 604.684 231.684C606.329 230.277 607.544 228.173 609.683 227.677C611.424 227.273 613.952 227.695 614.413 226.035C614.697 225.026 613.856 224.222 612.809 223.731C612.805 223.73 612.803 223.727 612.8 223.724C612.798 223.722 612.795 223.72 612.792 223.718C612.356 223.513 611.888 223.368 611.444 223.276Z" fill="var(--fill-0, #99D1FF)" fill-opacity="0.5"/>
<path fill-rule="evenodd" clip-rule="evenodd" d="M0.35231 122.461C0.348673 117.614 5.22835 114.263 9.83719 115.772C28.1414 121.765 47.3217 125.306 65.6735 131.005C69.364 132.149 76.602 134.367 79.8234 135.755C82.5279 136.921 87.4462 142.621 90.66 144.453C105.242 152.756 138.732 151.176 156.378 153.9C178.709 157.348 201.448 164.273 224.016 166.091C285.89 171.087 346.237 174.175 408.336 172.396C477.703 170.416 551.452 169.137 619.379 156.27C648.548 150.744 677.318 143.631 706.104 136.604C708.657 135.979 711.198 135.283 713.732 134.565C718.115 133.324 722.453 136.595 722.457 141.152L722.469 156.935C722.472 160.261 720.1 163.119 716.816 163.642C704.659 165.578 692.315 166.775 680.234 169.004C636.947 176.991 594.172 188.845 550.415 194.552C550.411 194.552 550.408 194.556 550.408 194.56C550.408 194.565 550.404 194.568 550.399 194.569C499.128 201.255 441.543 205.94 390.072 201.419C365.977 199.302 342.948 196.871 318.6 195.978C269.594 194.193 219.359 197.674 171.481 186.059C138.508 178.063 104.717 171.581 71.879 163.309C49.5877 157.689 26.4757 145.541 3.95702 139.426C3.39648 139.274 2.8674 139.027 2.39404 138.69C1.12138 137.783 0.364971 136.318 0.363575 134.757L0.35231 122.461ZM537.825 180.907C537.027 178.006 524.108 178.943 520.037 179.338C517.906 179.543 494.44 183.084 494.955 184.991C495.337 186.415 497.159 186.899 498.678 187.091C508.817 188.378 526.017 190.682 534.989 184.481C537.278 182.898 538.056 181.742 537.825 180.907Z" fill="var(--fill-0, #99D1FF)" fill-opacity="0.5"/>
<path d="M152.23 93.6236C181.912 94.1615 210.329 103.302 239.14 107.919C260.628 111.366 283.655 110.42 304.746 114.411C317.255 116.779 323.374 122.564 336.79 124.129C370.276 128.031 405.096 118.68 439.015 126.746C440.488 127.094 443.243 127.547 444.534 128.754C445.213 129.389 445.088 130.468 444.358 131.042C440.216 134.294 422.809 137.82 419.171 138.519C395.893 142.994 364.438 145.48 340.979 142.299C331.174 140.966 318.734 136.011 309.05 137.19C298.659 138.452 292.41 139.81 281.15 139.433C262.877 138.821 221.543 135.97 206.087 128.271C203.239 126.852 201.639 124.616 198.211 123.61C179.314 118.044 154.99 118.269 136.703 110.109C134.81 109.265 129.44 106.49 128.652 104.851C123.874 94.8813 146.214 93.5269 152.223 93.6307L152.227 93.6278L152.23 93.6236Z" fill="var(--fill-0, #99D1FF)" fill-opacity="0.5"/>
<path d="M616.809 110.433C619.806 110.083 636.564 108.008 636.19 112.679C636.016 114.844 626.106 123.094 624.559 125.926L624.562 125.929C617.55 129.143 598.734 131.814 592.663 126.763C590.81 125.218 589.914 121.905 591.418 119.76C596.518 112.495 608.553 111.389 616.809 110.433Z" fill="var(--fill-0, #99D1FF)" fill-opacity="0.5"/>
<path d="M712.02 75.6741C716.707 73.2786 722.401 76.6429 722.406 81.9107L722.413 90.1709C722.416 93.6003 719.895 96.4973 716.527 97.1383C704.942 99.3433 692.963 102.899 681.498 103.747C677.843 104.019 669.803 104.25 666.396 103.751L666.394 103.757C665.246 103.59 665.111 104.205 665.197 102.585C665.377 99.1326 670.559 96.8249 673.428 95.212C685.912 88.196 699.183 82.2345 712.02 75.6741Z" fill="var(--fill-0, #99D1FF)" fill-opacity="0.5"/>
<path d="M123.778 53.8945C128.914 47.0839 140.35 52.4424 147.757 53.5283C182.699 58.6249 219.55 62.583 253.891 71.5145C271.674 76.1376 285.045 80.9716 304.177 82.0361C372.769 85.874 441.526 75.6026 509.944 79.8844C511.023 79.9511 512.066 80.1867 513.115 80.3857C514.702 80.6872 515.882 81.8899 514.685 82.9725C508.169 88.862 455.425 95.6259 443.992 96.6807C414.2 99.4276 382.449 98.2215 352.638 96.6201C329.895 95.3996 309.201 90.0929 286.697 88.153C236.074 83.7786 184.046 81.1028 136.409 62.1546C134.774 61.501 127.434 58.5003 124.26 56.6868C123.177 56.0678 123.028 54.8891 123.778 53.8945Z" fill="var(--fill-0, #99D1FF)" fill-opacity="0.5"/>
<path d="M57.1095 63.4909C72.3512 61.9033 100.674 70.0491 113.864 77.7384C115.296 78.5742 116.316 80.511 117.477 81.1855C118.766 81.9364 120.379 80.7065 121.931 83.0119C125.051 87.6535 115.853 89.383 112.649 89.4569C96.6906 89.8266 70.2215 81.5456 55.6409 74.8503C52.6898 73.4929 44.2508 70.6223 48.1907 66.7367C49.2711 65.6736 55.2959 63.6736 57.1095 63.4909Z" fill="var(--fill-0, #99D1FF)" fill-opacity="0.5"/>
<path d="M0.28613 30.342C0.281577 24.8545 6.37849 21.5722 10.9637 24.594L30.8557 37.7051C31.3897 38.0571 31.8896 38.4919 32.2863 38.9936C40.4009 49.2529 19.6223 43.1626 14.4247 41.8197C11.0499 40.944 7.33122 40.0446 3.97391 38.7499C1.63749 37.8489 0.289615 35.5019 0.287538 32.9991L0.28613 30.342Z" fill="var(--fill-0, #99D1FF)" fill-opacity="0.5"/>
<path d="M44.2143 0.217709C49.3984 -1.05856 53.4713 3.61275 57.722 5.49963C66.4558 9.37271 75.5777 11.3861 84.2166 15.9635C86.9851 17.4281 98.656 24.4889 100.136 26.2739C101.648 28.0978 101.946 33.7388 99.5859 34.8621C97.066 36.0616 89.8923 33.4235 87.1243 32.3035C79.7031 29.2964 67.436 21.9515 60.1172 17.7349C56.7692 15.8087 42.36 8.09184 42.0007 2.63548C41.9206 1.4158 43.028 0.509844 44.2143 0.217709Z" fill="var(--fill-0, #99D1FF)" fill-opacity="0.5"/>
</g>
</svg>
