<svg preserveAspectRatio="none" width="100%" height="100%" overflow="visible" style="display: block;" viewBox="0 0 16 16.0224" fill="none" xmlns="http://www.w3.org/2000/svg">
<path id="Vector" fill-rule="evenodd" clip-rule="evenodd" d="M15.3846 0.136461C15.4235 0.0963718 15.4624 0.0561056 15.4863 0.00383892C15.0171 0.00383892 14.5478 0.00383868 14.0786 0.00428312C14.0184 0.0737053 13.9584 0.143306 13.8984 0.212906C13.7853 0.344194 13.6722 0.475483 13.5577 0.605528C13.1334 1.08811 12.7092 1.57059 12.2849 2.05317C11.1764 3.31388 10.0678 4.57468 8.96009 5.83628C8.91733 5.88473 8.90071 5.89326 8.85876 5.83344C7.6656 4.12962 6.47093 2.42668 5.27636 0.723927C5.108 0.483839 4.93956 0.243839 4.7712 0.00383892H4.24702C2.85467 0.00383892 1.46222 0.00383892 0.0702226 0.00508336C0.0644449 0.00508336 0.0581332 0.00383893 0.0517332 0.00259448C0.0329777 -0.000961072 0.0128889 -0.00469424 0 0.0195724C0.0203556 0.0258835 0.0296001 0.0423277 0.0387556 0.0586833C0.0419556 0.0643721 0.0451558 0.0700607 0.0488892 0.0753052C2.09342 2.98811 4.1376 5.90091 6.18213 8.81451C6.25405 8.91673 6.25404 8.91673 6.17369 9.00837L6.17031 9.01228C4.13289 11.331 2.09556 13.6496 0.0585776 15.9687C0.0556443 15.972 0.0520886 15.9751 0.0484441 15.9782C0.0369774 15.988 0.0246225 15.9987 0.0282669 16.0204C0.1192 16.0204 0.210134 16.0204 0.301067 16.0204C0.663734 16.0203 1.02613 16.0202 1.3888 16.0212C1.42311 16.0212 1.44 16.003 1.45902 15.9813C1.51156 15.9209 1.56444 15.8609 1.61733 15.8009C1.64373 15.7709 1.67013 15.7411 1.69644 15.711L6.17529 10.6124C6.26942 10.5053 6.36347 10.3982 6.45778 10.2909C6.5976 10.1318 6.73796 9.97211 6.88 9.81033C6.90018 9.83779 6.91671 9.86082 6.93289 9.88384L11.1852 15.9445L11.1879 15.9484C11.2162 15.9887 11.2397 16.0224 11.3043 16.0224C12.3748 16.0205 13.445 16.0203 14.5152 16.02C14.9908 16.0199 15.4666 16.0198 15.9422 16.0196C15.9467 16.0196 15.9514 16.0202 15.9562 16.0208C15.9711 16.0229 15.9872 16.025 16 16.0091C15.9951 16.002 15.9905 15.9949 15.9859 15.9878C15.9804 15.9797 15.9751 15.9717 15.9697 15.9638C15.4964 15.2894 15.0233 14.615 14.55 13.9405C14.0769 13.266 13.6037 12.5915 13.1304 11.9171C12.945 11.6528 12.7596 11.3885 12.5742 11.1243C11.574 9.69851 10.574 8.2729 9.57271 6.84793C9.54364 6.80668 9.54036 6.78251 9.57591 6.74331C9.66631 6.64393 9.75458 6.54259 9.84293 6.44144C9.8848 6.39335 9.92676 6.34535 9.96889 6.29744C10.3706 5.84028 10.7724 5.38304 11.1742 4.92579C12.5632 3.34517 13.9524 1.76428 15.341 0.183128C15.3549 0.167128 15.3698 0.151838 15.3846 0.136461ZM1.9512 1.08517C1.94373 1.07424 1.93538 1.06206 1.92542 1.04775H1.92764C1.95271 1.08446 1.96844 1.10748 1.98418 1.13006C2.59164 1.98099 3.19911 2.83193 3.80667 3.68277C6.49564 7.44926 9.1848 11.2158 11.8731 14.983C11.9034 15.0257 11.934 15.0427 11.9874 15.0427C12.4567 15.0413 12.9258 15.0413 13.3948 15.0413C13.5958 15.0412 13.7967 15.0412 13.9976 15.0411C14.0028 15.0411 14.0079 15.0414 14.0132 15.0417C14.0222 15.0422 14.0315 15.0428 14.041 15.0419C14.0308 15.043 14.021 15.0424 14.0114 15.0418C14.006 15.0414 14.0006 15.0411 13.9954 15.0411C13.7944 15.0413 13.5934 15.0413 13.3924 15.0413C12.9233 15.0413 12.4542 15.0413 11.9852 15.0428C11.9318 15.0428 11.9012 15.0258 11.8708 14.983C9.60027 11.8012 7.32916 8.61984 5.05804 5.43851C4.0328 4.00242 3.00756 2.56624 1.9824 1.13015C1.97253 1.11628 1.96293 1.10233 1.9512 1.08517Z" fill="var(--fill-0, #0E122A)"/>
</svg>
