<svg preserveAspectRatio="none" width="100%" height="100%" overflow="visible" style="display: block;" viewBox="0 0 16 19.5556" fill="none" xmlns="http://www.w3.org/2000/svg">
<path id="Vector" d="M2.94894 19.5556C0.979836 19.5556 0 18.607 0 16.7007V2.86403C0 0.966778 0.989268 0 2.94894 0H7.31506V6.69484C7.31506 7.86231 7.89541 8.41879 9.11297 8.41879H16V16.7007C16 18.5978 15.0202 19.5556 13.0511 19.5556H2.94894ZM9.14153 7.16919C8.78946 7.16919 8.61828 7.00492 8.61828 6.67663V0.100344C9.01776 0.164144 9.40781 0.428633 9.85496 0.866555L15.0963 5.98339C15.5528 6.43036 15.8287 6.79519 15.8858 7.16919H9.14153ZM4.27115 12.3864H11.7574C12.1189 12.3864 12.3947 12.131 12.3947 11.7936C12.3947 11.456 12.1189 11.1915 11.7574 11.1915H4.27115C3.9001 11.1915 3.62426 11.456 3.62426 11.7936C3.62426 12.131 3.9001 12.3864 4.27115 12.3864ZM4.27115 15.8433H11.7574C12.1189 15.8433 12.3947 15.5879 12.3947 15.2504C12.3947 14.9129 12.1189 14.6485 11.7574 14.6485H4.27115C3.9001 14.6485 3.62426 14.9129 3.62426 15.2504C3.62426 15.5879 3.9001 15.8433 4.27115 15.8433Z" fill="var(--fill-0, #0E122A)"/>
</svg>
