<svg preserveAspectRatio="none" width="100%" height="100%" overflow="visible" style="display: block;" viewBox="0 0 65.6075 12.116" fill="none" xmlns="http://www.w3.org/2000/svg">
<g id="Typus Text">
<path id="Vector" d="M24.6076 0.175H27.4728L21.5786 6.93793V11.9317H19.1727V6.93793L13.2625 0.175H16.1937L20.4029 4.9891L24.6121 0.175H24.6076Z" fill="var(--fill-0, #5056EA)"/>
<path id="Vector_2" d="M7.61569 2.25345V11.9317H5.19159V2.25345H0V0.175H12.805V2.25345H7.61342H7.61569Z" fill="var(--fill-0, #5056EA)"/>
<path id="Vector_3" d="M30.3372 11.9317H27.9312V0.175H35.2832C37.9688 0.175 39.738 1.453 39.738 3.89075C39.738 6.3285 37.9688 7.60877 35.2832 7.60877H30.3372V11.9317ZM35.1513 5.56215C36.543 5.56215 37.3616 4.93907 37.3616 3.89302C37.3616 2.84697 36.543 2.22389 35.1513 2.22389H30.3372V5.56443H35.1513V5.56215Z" fill="var(--fill-0, #5056EA)"/>
<path id="Vector_4" d="M40.5531 6.3808V0.175H42.959V6.24891C42.959 8.45925 43.9096 9.98285 46.5952 9.98285C49.2808 9.98285 50.2132 8.45925 50.2132 6.24891V0.175H52.6373V6.3808C52.6373 9.8032 50.7044 12.0954 46.5952 12.0954C42.486 12.0954 40.5531 9.8032 40.5531 6.3808Z" fill="var(--fill-0, #5056EA)"/>
<path id="Vector_5" d="M54.6012 7.69528C55.9429 9.49631 58.0736 10.0534 59.8087 10.0534C61.7735 10.0534 63.1652 9.46447 63.1652 8.51393C63.1652 7.39966 62.1987 7.30188 58.8923 6.94258C56.0111 6.61512 53.8007 6.07391 53.8007 3.74986C53.8007 1.42581 55.9793 0 59.3198 0C61.9395 0 64.2976 0.932348 65.3619 2.34224L63.7564 3.88175C62.8559 2.71973 61.1868 2.04662 59.1879 2.04662C57.0913 2.04662 56.143 2.71745 56.143 3.50426C56.143 4.35475 56.9298 4.55259 59.9088 4.89596C63.2493 5.27345 65.6075 5.71461 65.6075 8.25242C65.6075 10.7902 63.0378 12.116 59.7132 12.116C56.9139 12.116 54.1305 11.0358 52.9844 9.38033L54.6058 7.69301L54.6012 7.69528Z" fill="var(--fill-0, #5056EA)"/>
</g>
</svg>
