<svg preserveAspectRatio="none" width="100%" height="100%" overflow="visible" style="display: block;" viewBox="0 0 28.5563 31.9993" fill="none" xmlns="http://www.w3.org/2000/svg">
<g id="Whale">
<path id="Vector" d="M16.4933 0.739031C17.5507 1.44852 18.5194 2.51277 19.1266 3.23136C20.2477 4.55029 21.4961 5.99884 22.1146 7.62704C22.5604 8.80043 22.6127 10.1785 21.9418 11.245C21.3642 12.1683 20.3455 12.7208 19.3722 13.237C17.8349 14.0511 16.3 14.8652 14.7605 15.6793C14.6991 15.7112 14.6354 15.7476 14.6127 15.809C14.5854 15.8749 14.6172 15.9454 14.6422 16.0113C14.831 16.4775 15.0402 16.8846 15.1516 17.3144C15.288 17.8442 15.238 17.419 15.304 18.3172C15.3335 18.7015 15.2517 19.1427 15.0584 19.5042C14.9879 19.6339 14.9151 19.8408 14.7764 19.884C14.5058 19.9704 13.4029 18.6469 13.0004 18.3922C12.0976 17.826 11.5609 17.5418 11.1584 17.6418C11.1084 17.6532 10.1897 18.1648 9.79628 18.6719C9.55069 18.9926 9.30055 19.3542 9.10498 19.6566C8.37047 20.7777 8.64563 21.9147 8.74114 22.3013C9.03449 23.5156 10.2897 23.5315 11.3585 23.4951C13.4097 23.4269 15.5564 23.5474 17.3483 24.5389C17.6735 24.7208 18.0282 25.0483 17.8986 25.3917C17.8236 25.5827 17.6257 25.6918 17.437 25.7783C16.5933 26.1694 15.6951 26.4536 14.7787 26.6174C14.0646 26.7447 13.321 26.8061 12.6843 27.1472C11.9884 27.5202 11.5018 28.1955 11.1903 28.9141C10.9401 29.494 10.5513 32.4661 9.45745 31.9363C9.26644 31.8453 9.13227 31.6702 9.02084 31.4906C8.55921 30.7356 8.46598 29.8442 8.11351 29.046C7.71783 28.1478 6.99014 27.6975 6.20788 27.1472C4.60242 26.0193 3.21527 24.3161 2.71953 22.4173C2.05325 19.8681 2.21243 16.664 3.57002 14.3377C3.29941 14.0602 3.16297 14.0398 1.62346 14.1557C1.4006 14.1717 0.152165 14.4809 0.0384642 14.2854C-0.0524966 14.1285 0.0316421 13.7965 0.147617 13.5258C0.186275 13.4394 0.231756 13.3416 0.261318 13.2712C0.440966 12.8163 0.795713 12.5025 1.17775 12.1955C2.23517 11.3451 3.38582 10.6333 4.67974 10.1694C5.06405 10.0329 5.23232 9.79418 5.39378 9.40532C6.83323 5.97837 10.0942 0.186444 14.4057 0.00224858C15.0879 -0.0295877 15.8111 0.279679 16.4933 0.736757V0.739031Z" fill="var(--fill-0, #5056EA)"/>
<path id="Vector_2" d="M28.5563 20.1103C25.7069 21.975 24.0537 23.7555 24.131 24.8584C24.1287 24.8562 24.1287 24.8516 24.1287 24.8493C23.9809 22.3184 22.5256 20.3354 20.7541 20.3354C20.3266 20.3354 19.9173 20.4514 19.5375 20.6629C22.305 18.8482 23.9332 17.1154 23.94 16.0125C24.1128 18.5071 25.5591 20.4537 27.3146 20.4537C27.7535 20.4537 28.1742 20.3331 28.5563 20.1103Z" fill="var(--fill-0, #5056EA)"/>
</g>
</svg>
